<svg width="18" height="17" viewBox="0 0 18 17" fill="none" xmlns="http://www.w3.org/2000/svg">
<g clip-path="url(#clip0_36_1468)">
<path fill-rule="evenodd" clip-rule="evenodd" d="M9.27928 0.176148C4.56254 0.176147 0.749512 4.01728 0.749512 8.76929C0.749512 12.5678 3.19265 15.7832 6.58193 16.9212C7.00567 17.0068 7.16089 16.7363 7.16089 16.5088C7.16089 16.3096 7.14692 15.6268 7.14692 14.9153C4.77415 15.4275 4.28004 13.8909 4.28004 13.8909C3.89872 12.895 3.33372 12.6391 3.33372 12.6391C2.55711 12.1126 3.39029 12.1126 3.39029 12.1126C4.25175 12.1696 4.70379 12.9947 4.70379 12.9947C5.46625 14.3035 6.69489 13.9337 7.18917 13.706C7.25971 13.1512 7.48581 12.767 7.72589 12.5537C5.83343 12.3545 3.84232 11.6147 3.84232 8.31394C3.84232 7.37496 4.18104 6.60673 4.71775 6.00926C4.63307 5.7959 4.33643 4.91366 4.80261 3.73286C4.80261 3.73286 5.52282 3.50519 7.14675 4.61493C7.84201 4.42683 8.55902 4.33114 9.27928 4.33033C9.99949 4.33033 10.7337 4.43003 11.4116 4.61493C13.0357 3.50519 13.7559 3.73286 13.7559 3.73286C14.2221 4.91366 13.9253 5.7959 13.8406 6.00926C14.3915 6.60673 14.7162 7.37496 14.7162 8.31394C14.7162 11.6147 12.7251 12.3401 10.8185 12.5537C11.1293 12.824 11.3975 13.3361 11.3975 14.1471C11.3975 15.2994 11.3835 16.2242 11.3835 16.5087C11.3835 16.7363 11.5389 17.0068 11.9625 16.9214C15.3518 15.783 17.7949 12.5678 17.7949 8.76929C17.8089 4.01728 13.9819 0.176148 9.27928 0.176148Z" fill="#24292F"/>
</g>
<defs>
<clipPath id="clip0_36_1468">
<rect width="17.1105" height="16.7613" fill="white" transform="translate(0.749512 0.176147)"/>
</clipPath>
</defs>
</svg>
