<svg width="900" height="600" viewBox="0 0 900 600" fill="none" xmlns="http://www.w3.org/2000/svg">
<path d="M504.908 600H839.476C850.103 600.001 860.542 597.229 869.745 591.963C878.948 586.696 886.589 579.121 891.9 569.999C897.211 560.876 900.005 550.529 900 539.997C899.995 529.465 897.193 519.12 891.873 510.002L667.187 124.289C661.876 115.169 654.237 107.595 645.036 102.329C635.835 97.064 625.398 94.291 614.773 94.291C604.149 94.291 593.711 97.064 584.511 102.329C575.31 107.595 567.67 115.169 562.36 124.289L504.908 222.979L392.581 29.993C387.266 20.874 379.623 13.301 370.42 8.036C361.216 2.772 350.777 0 340.151 0C329.525 0 319.086 2.772 309.883 8.036C300.679 13.301 293.036 20.874 287.721 29.993L8.12649 510.002C2.80743 519.12 0.00462935 529.465 5.72978e-06 539.997C-0.00461789 550.529 2.78909 560.876 8.10015 569.999C13.4112 579.121 21.0523 586.696 30.255 591.963C39.4576 597.229 49.8973 600.001 60.524 600H270.538C353.748 600 415.112 563.775 457.336 493.101L559.849 317.145L614.757 222.979L779.547 505.834H559.849L504.908 600ZM267.114 505.737L120.551 505.704L340.249 128.586L449.87 317.145L376.474 443.175C348.433 489.03 316.577 505.737 267.114 505.737Z" fill="#00DC82"/>
</svg>
