<svg width="21" height="16" viewBox="0 0 21 16" fill="none" xmlns="http://www.w3.org/2000/svg">
<path d="M6.72293 8.53489C5.97143 8.74817 5.4784 9.12211 5.15362 9.49576C5.46469 9.22353 5.88138 8.97369 6.44346 8.81436C7.01837 8.65141 7.50883 8.65258 7.91409 8.73079L7.91409 8.41388C7.56838 8.38227 7.17204 8.40747 6.72293 8.53489ZM5.11927 5.87088L2.32832 6.60616C2.32832 6.60616 2.37918 6.67801 2.47337 6.77389L4.83974 6.15034C4.83974 6.15034 4.80621 6.58243 4.51501 6.96897C5.06585 6.55222 5.11927 5.87088 5.11927 5.87088ZM7.45547 12.4301C3.52787 13.4879 1.4499 8.93624 0.820775 6.57374C0.530112 5.48323 0.403227 4.65731 0.369408 4.12433C0.365775 4.06899 0.367454 4.02233 0.371368 3.97959C0.167624 3.99189 0.0700795 4.0978 0.0899255 4.40386C0.123745 4.93654 0.25063 5.7624 0.541292 6.85326C1.17014 9.21542 3.24838 13.7671 7.17601 12.7093C8.03091 12.479 8.67317 12.0595 9.1553 11.524C8.71091 11.9253 8.15472 12.2414 7.45547 12.4301ZM8.19356 3.08521L8.19356 3.36473L9.73412 3.36473C9.70251 3.26576 9.67067 3.17659 9.63906 3.08521L8.19356 3.08521Z" fill="#2D4552"/>
<path d="M10.0782 5.38719C10.771 5.58396 11.1374 6.0697 11.3311 6.49957L12.1036 6.71896C12.1036 6.71896 11.9982 5.2145 10.6374 4.82797C9.36433 4.46627 8.58093 5.53532 8.48563 5.67365C8.85596 5.40982 9.39675 5.1938 10.0782 5.38719ZM16.2274 6.50651C14.9532 6.14318 14.1701 7.21444 14.0762 7.35085C14.4468 7.08731 14.9873 6.87123 15.6684 7.0655C16.3601 7.26256 16.7262 7.74771 16.9205 8.17787L17.6941 8.39809C17.6941 8.39809 17.587 6.89334 16.2274 6.50651ZM15.4599 10.4733L9.03372 8.67673C9.03372 8.67673 9.10329 9.02945 9.37022 9.48615L14.7808 10.9987C15.2262 10.741 15.4599 10.4733 15.4599 10.4733ZM11.0046 14.3402C5.91633 12.976 6.53148 6.49286 7.35483 3.42073C7.69383 2.15468 8.04235 1.21366 8.33138 0.582859C8.15893 0.54736 8.01611 0.638198 7.87497 0.925227C7.5681 1.54763 7.17567 2.56104 6.7959 3.97971C5.97278 7.05179 5.35763 13.5347 10.4457 14.8989C12.8439 15.5414 14.7122 14.5649 16.105 13.0314C14.783 14.2287 13.0952 14.9 11.0046 14.3402Z" fill="#2D4552"/>
<path d="M8.19306 10.9107L8.19306 9.60245L4.55811 10.6332C4.55811 10.6332 4.82671 9.07256 6.72243 8.5348C7.29734 8.37186 7.78786 8.37297 8.19306 8.45123L8.19306 3.08511L10.0131 3.08511C9.81492 2.47276 9.62322 2.00131 9.4622 1.67373C9.19586 1.13154 8.92281 1.49096 8.30294 2.00942C7.86636 2.37415 6.76296 3.15224 5.10256 3.59966C3.44213 4.04738 2.09976 3.92864 1.53968 3.83166C0.745659 3.69466 0.330346 3.52029 0.369198 4.12424C0.403011 4.65693 0.529902 5.48285 0.820564 6.57365C1.4494 8.93586 3.52765 13.4876 7.45527 12.4297C8.48122 12.1533 9.20537 11.6069 9.70732 10.9104L8.19306 10.9104L8.19306 10.9107ZM2.32755 6.60607L5.11877 5.87079C5.11877 5.87079 5.03742 6.94456 3.99104 7.22041C2.94437 7.49596 2.32755 6.60607 2.32755 6.60607Z" fill="#E2574C"/>
<path d="M18.6986 3.14724C17.9731 3.27443 16.2324 3.43288 14.0813 2.85628C11.9295 2.28003 10.5019 1.27218 9.93622 0.798457C9.13439 0.126854 8.78168 -0.339885 8.43456 0.366097C8.12769 0.988788 7.73526 2.0022 7.35543 3.42087C6.53237 6.49295 5.91722 12.9759 11.0052 14.3401C16.0922 15.7031 18.8003 9.7808 19.6234 6.70844C20.0033 5.29006 20.1698 4.21599 20.2157 3.52345C20.2679 2.73894 19.7291 2.96668 18.6986 3.14724ZM8.47591 5.6889C8.47591 5.6889 9.27774 4.4418 10.6377 4.82834C11.9985 5.21488 12.1039 6.71934 12.1039 6.71934L8.47591 5.6889ZM11.7956 11.285C9.40353 10.5843 9.03461 8.67682 9.03461 8.67682L15.4605 10.4734C15.4605 10.4731 14.1634 11.977 11.7956 11.285ZM14.0675 7.36493C14.0675 7.36493 14.8683 6.11871 16.228 6.50636C17.5876 6.89348 17.6947 8.39794 17.6947 8.39794L14.0675 7.36493Z" fill="#2EAD33"/>
<path d="M6.92309 9.96289L4.55839 10.6331C4.55839 10.6331 4.81526 9.16975 6.55726 8.58982L5.21825 3.5647L5.10254 3.59986C3.44213 4.04764 2.09976 3.92884 1.53968 3.83186C0.745665 3.69492 0.330351 3.52049 0.369197 4.1245C0.403016 4.65719 0.529901 5.48305 0.820564 6.5739C1.44941 8.93606 3.52765 13.4878 7.45525 12.4299L7.57096 12.3936L6.92309 9.96289ZM2.32783 6.60633L5.11905 5.87098C5.11905 5.87098 5.03769 6.94476 3.99132 7.22061C2.94465 7.49616 2.32783 6.60633 2.32783 6.60633Z" fill="#D65348"/>
<path d="M11.9035 11.3113L11.7953 11.285C9.40324 10.5843 9.03432 8.67682 9.03432 8.67682L12.3479 9.60304L14.1022 2.86188L14.081 2.85628C11.9292 2.28003 10.5016 1.27218 9.93593 0.798457C9.1341 0.126854 8.78139 -0.339885 8.43427 0.366097C8.12769 0.988788 7.73526 2.0022 7.35543 3.42087C6.53237 6.49294 5.91722 12.9759 11.0052 14.34L11.1095 14.3635L11.9035 11.3113ZM8.47591 5.6889C8.47591 5.6889 9.27774 4.4418 10.6377 4.82834C11.9985 5.21488 12.1039 6.71934 12.1039 6.71934L8.47591 5.6889Z" fill="#1D8D22"/>
<path d="M7.04337 9.92824L6.40921 10.1082C6.55903 10.9528 6.8231 11.7633 7.23757 12.4794C7.30971 12.4634 7.38127 12.4497 7.45475 12.4296C7.64732 12.3776 7.82589 12.3133 7.99782 12.2432C7.53471 11.5559 7.22835 10.7644 7.04337 9.92824ZM6.79574 3.97969C6.46986 5.19599 6.17832 6.94667 6.25857 8.70266C6.40221 8.64032 6.55395 8.58223 6.7225 8.53441L6.83989 8.50817C6.69678 6.63251 7.00616 4.72116 7.35467 3.4207C7.44303 3.09172 7.53161 2.78572 7.61991 2.50037C7.47767 2.59088 7.32452 2.68366 7.15009 2.77925C7.03246 3.14234 6.91367 3.5392 6.79574 3.97969Z" fill="#C04B41"/>
</svg>
