<svg width="242" height="41" viewBox="0 0 242 41" fill="none" xmlns="http://www.w3.org/2000/svg">
<rect x="0.5" y="1.45685" width="240.889" height="39" rx="7.5" fill="white"/>
<g clip-path="url(#clip0_150_4146)">
<path d="M24.571 26.4803C24.571 26.5584 24.6586 26.6209 24.769 26.6209C24.8947 26.6326 24.9823 26.5701 24.9823 26.4803C24.9823 26.4022 24.8947 26.3397 24.7843 26.3397C24.67 26.3279 24.571 26.3904 24.571 26.4803ZM25.7554 26.3045C25.782 26.3826 25.7059 26.4725 25.5916 26.4959C25.4926 26.535 25.3784 26.4959 25.3555 26.4178C25.3327 26.3397 25.405 26.2498 25.5193 26.2147C25.6183 26.1873 25.7287 26.2264 25.7554 26.3045ZM24.0721 26.2381C24.1826 26.2654 24.2587 26.3397 24.2473 26.4295C24.2359 26.5076 24.1369 26.5584 24.0226 26.5311C23.9122 26.5037 23.836 26.4295 23.8474 26.3514C23.8589 26.2772 23.9617 26.2264 24.0721 26.2381ZM21.5663 11.2693C26.8483 11.2693 30.8889 15.3826 30.8889 20.8006C30.8889 25.1326 28.2307 28.8397 24.4339 30.1443C23.9465 30.2342 23.7751 29.9256 23.7751 29.6717C23.7751 29.4295 23.7865 28.0936 23.7865 27.2733C23.7865 27.2733 26.4523 27.8592 27.0121 26.1092C27.0121 26.1092 27.4462 24.9725 28.0708 24.6795C28.0708 24.6795 28.9429 24.0662 28.0099 24.0779C28.0099 24.0779 27.0616 24.1561 26.5399 25.0858C25.7059 26.5936 24.3082 26.16 23.7637 25.9022C23.6761 25.2772 23.4285 24.8436 23.1543 24.5858C25.2832 24.3436 27.431 24.0272 27.431 20.2693C27.431 19.1951 27.1416 18.6561 26.5323 17.9686C26.6313 17.7147 26.955 16.6678 26.4332 15.3162C25.6373 15.0623 23.8056 16.3709 23.8056 16.3709C23.0439 16.1522 22.2251 16.0389 21.414 16.0389C20.6028 16.0389 19.784 16.1522 19.0224 16.3709C19.0224 16.3709 17.1906 15.0584 16.3947 15.3162C15.873 16.6717 16.1967 17.7147 16.2957 17.9686C15.6864 18.66 15.3132 19.199 15.3132 20.2693C15.3132 24.0389 17.5562 24.3397 19.685 24.5858C19.3347 24.8943 19.0376 25.4803 19.0376 26.3983C19.0376 27.7147 19.0491 29.3436 19.0491 29.6639C19.0491 29.9178 18.8739 30.2264 18.3902 30.1365C14.582 28.8397 12 25.1326 12 20.8006C12 15.3826 16.2843 11.2693 21.5663 11.2693ZM27.1873 24.742C27.2368 24.7811 27.2254 24.8709 27.1606 24.9451C27.0997 25.0076 27.0121 25.035 26.9626 24.9842C26.9131 24.9451 26.9245 24.8553 26.9892 24.7811C27.0502 24.7186 27.1378 24.6912 27.1873 24.742ZM27.5986 24.4256C27.6252 24.4764 27.5871 24.5389 27.511 24.5779C27.45 24.617 27.3739 24.6053 27.3472 24.5506C27.3206 24.4998 27.3586 24.4373 27.4348 24.3983C27.511 24.3748 27.5719 24.3865 27.5986 24.4256ZM26.3647 25.8162C26.4256 25.867 26.4028 25.9842 26.3152 26.0584C26.2276 26.1483 26.1172 26.16 26.0676 26.0975C26.0181 26.0467 26.041 25.9295 26.1172 25.8553C26.2009 25.7654 26.3152 25.7537 26.3647 25.8162ZM26.7988 25.242C26.8598 25.2811 26.8598 25.3826 26.7988 25.4725C26.7379 25.5623 26.6351 25.6014 26.5856 25.5623C26.5246 25.5115 26.5246 25.41 26.5856 25.3201C26.6389 25.2303 26.7379 25.1912 26.7988 25.242Z" fill="black"/>
</g>
<path d="M40.5395 25.9568H39.2468L42.9855 15.775H44.2582L47.9968 25.9568H46.7042L43.6616 17.3858H43.5821L40.5395 25.9568ZM41.0167 21.9796H46.227V23.0733H41.0167V21.9796ZM52.526 26.1159C51.8101 26.1159 51.1936 25.9469 50.6765 25.6088C50.1595 25.2708 49.7618 24.8051 49.4833 24.2118C49.2049 23.6185 49.0657 22.9407 49.0657 22.1784C49.0657 21.4029 49.2083 20.7184 49.4933 20.1252C49.7816 19.5286 50.1827 19.0629 50.6964 18.7282C51.2135 18.3901 51.8167 18.2211 52.5061 18.2211C53.043 18.2211 53.5269 18.3205 53.9578 18.5193C54.3886 18.7182 54.7416 18.9966 55.0167 19.3546C55.2918 19.7125 55.4625 20.1301 55.5288 20.6074H54.3555C54.266 20.2594 54.0672 19.9512 53.7589 19.6827C53.454 19.4109 53.043 19.275 52.526 19.275C52.0686 19.275 51.6675 19.3943 51.3228 19.633C50.9815 19.8683 50.7146 20.2014 50.5224 20.6323C50.3335 21.0598 50.239 21.562 50.239 22.1387C50.239 22.7286 50.3318 23.2424 50.5174 23.6799C50.7064 24.1174 50.9715 24.4571 51.3129 24.699C51.6576 24.941 52.0619 25.062 52.526 25.062C52.8309 25.062 53.1076 25.0089 53.3562 24.9029C53.6048 24.7968 53.8153 24.6443 53.9876 24.4455C54.16 24.2466 54.2826 24.008 54.3555 23.7296H55.5288C55.4625 24.1803 55.2984 24.5863 55.0366 24.9476C54.7781 25.3056 54.4351 25.5906 54.0075 25.8027C53.5833 26.0115 53.0894 26.1159 52.526 26.1159ZM60.4457 26.1159C59.7099 26.1159 59.0752 25.9535 58.5416 25.6287C58.0113 25.3006 57.602 24.8432 57.3136 24.2566C57.0286 23.6666 56.886 22.9805 56.886 22.1983C56.886 21.4161 57.0286 20.7267 57.3136 20.1301C57.602 19.5302 58.003 19.0629 58.5167 18.7282C59.0338 18.3901 59.637 18.2211 60.3264 18.2211C60.7241 18.2211 61.1169 18.2873 61.5047 18.4199C61.8924 18.5525 62.2454 18.7679 62.5636 19.0662C62.8818 19.3612 63.1353 19.7523 63.3243 20.2395C63.5132 20.7267 63.6076 21.3266 63.6076 22.0392V22.5364H57.7213V21.5222H62.4145C62.4145 21.0913 62.3283 20.7068 62.1559 20.3688C61.9869 20.0307 61.7449 19.7639 61.4301 19.5684C61.1185 19.3728 60.7506 19.275 60.3264 19.275C59.8591 19.275 59.4547 19.391 59.1133 19.623C58.7752 19.8517 58.5151 20.15 58.3328 20.5179C58.1505 20.8858 58.0593 21.2802 58.0593 21.7012V22.3773C58.0593 22.954 58.1588 23.4429 58.3576 23.8439C58.5598 24.2416 58.8399 24.5449 59.1978 24.7537C59.5558 24.9592 59.9717 25.062 60.4457 25.062C60.7539 25.062 61.0324 25.0189 61.2809 24.9327C61.5328 24.8432 61.7499 24.7106 61.9322 24.535C62.1145 24.356 62.2554 24.1339 62.3548 23.8688L63.4883 24.187C63.369 24.5714 63.1685 24.9095 62.8868 25.2012C62.605 25.4895 62.257 25.7149 61.8427 25.8773C61.4284 26.0364 60.9627 26.1159 60.4457 26.1159ZM70.8015 20.0307L69.7476 20.329C69.6813 20.1533 69.5835 19.9827 69.4542 19.8169C69.3283 19.6479 69.1559 19.5087 68.9372 19.3993C68.7184 19.2899 68.4384 19.2353 68.097 19.2353C67.6297 19.2353 67.2402 19.343 66.9287 19.5584C66.6204 19.7705 66.4663 20.0407 66.4663 20.3688C66.4663 20.6604 66.5724 20.8908 66.7845 21.0598C66.9966 21.2289 67.328 21.3697 67.7788 21.4824L68.9123 21.7608C69.5951 21.9265 70.1038 22.1801 70.4386 22.5215C70.7734 22.8595 70.9407 23.2954 70.9407 23.829C70.9407 24.2665 70.8148 24.6576 70.5629 25.0023C70.3143 25.347 69.9663 25.6188 69.5189 25.8176C69.0714 26.0165 68.5511 26.1159 67.9578 26.1159C67.1789 26.1159 66.5342 25.9469 66.0238 25.6088C65.5134 25.2708 65.1903 24.7769 65.0544 24.1273L66.168 23.8489C66.2741 24.2599 66.4746 24.5681 66.7696 24.7736C67.0679 24.9791 67.4573 25.0818 67.9379 25.0818C68.4848 25.0818 68.919 24.9658 69.2404 24.7338C69.5653 24.4985 69.7277 24.2168 69.7277 23.8887C69.7277 23.6235 69.6349 23.4015 69.4493 23.2225C69.2636 23.0402 68.9786 22.9043 68.5941 22.8148L67.3214 22.5165C66.6221 22.3508 66.1083 22.0939 65.7802 21.7459C65.4554 21.3946 65.293 20.9554 65.293 20.4284C65.293 19.9976 65.414 19.6164 65.6559 19.285C65.9012 18.9535 66.2343 18.6934 66.6552 18.5044C67.0795 18.3155 67.5601 18.2211 68.097 18.2211C68.8527 18.2211 69.4459 18.3868 69.8768 18.7182C70.311 19.0497 70.6192 19.4872 70.8015 20.0307ZM78.116 20.0307L77.062 20.329C76.9957 20.1533 76.8979 19.9827 76.7687 19.8169C76.6427 19.6479 76.4704 19.5087 76.2516 19.3993C76.0329 19.2899 75.7528 19.2353 75.4114 19.2353C74.9441 19.2353 74.5547 19.343 74.2431 19.5584C73.9349 19.7705 73.7808 20.0407 73.7808 20.3688C73.7808 20.6604 73.8868 20.8908 74.0989 21.0598C74.3111 21.2289 74.6425 21.3697 75.0933 21.4824L76.2268 21.7608C76.9095 21.9265 77.4183 22.1801 77.7531 22.5215C78.0878 22.8595 78.2552 23.2954 78.2552 23.829C78.2552 24.2665 78.1292 24.6576 77.8773 25.0023C77.6288 25.347 77.2808 25.6188 76.8333 25.8176C76.3859 26.0165 75.8655 26.1159 75.2722 26.1159C74.4933 26.1159 73.8487 25.9469 73.3383 25.6088C72.8279 25.2708 72.5047 24.7769 72.3688 24.1273L73.4825 23.8489C73.5885 24.2599 73.789 24.5681 74.084 24.7736C74.3823 24.9791 74.7718 25.0818 75.2523 25.0818C75.7992 25.0818 76.2334 24.9658 76.5549 24.7338C76.8797 24.4985 77.0421 24.2168 77.0421 23.8887C77.0421 23.6235 76.9493 23.4015 76.7637 23.2225C76.5781 23.0402 76.2931 22.9043 75.9086 22.8148L74.6359 22.5165C73.9365 22.3508 73.4228 22.0939 73.0947 21.7459C72.7699 21.3946 72.6075 20.9554 72.6075 20.4284C72.6075 19.9976 72.7284 19.6164 72.9704 19.285C73.2156 18.9535 73.5487 18.6934 73.9697 18.5044C74.3939 18.3155 74.8745 18.2211 75.4114 18.2211C76.1671 18.2211 76.7604 18.3868 77.1913 18.7182C77.6255 19.0497 77.9337 19.4872 78.116 20.0307ZM82.2685 26.1358C81.7846 26.1358 81.3454 26.0447 80.951 25.8624C80.5566 25.6768 80.2434 25.41 80.0114 25.062C79.7794 24.7106 79.6634 24.2864 79.6634 23.7892C79.6634 23.3517 79.7496 22.9971 79.9219 22.7253C80.0943 22.4502 80.3246 22.2348 80.613 22.079C80.9013 21.9232 81.2195 21.8072 81.5675 21.731C81.9188 21.6515 82.2718 21.5885 82.6265 21.5421C83.0905 21.4824 83.4667 21.4377 83.755 21.4078C84.0467 21.3747 84.2588 21.32 84.3914 21.2438C84.5273 21.1675 84.5952 21.035 84.5952 20.8461V20.8063C84.5952 20.3157 84.461 19.9346 84.1925 19.6628C83.9274 19.391 83.5247 19.2551 82.9844 19.2551C82.4243 19.2551 81.9851 19.3778 81.6669 19.623C81.3488 19.8683 81.125 20.1301 80.9958 20.4086L79.8821 20.0108C80.081 19.5468 80.3462 19.1855 80.6776 18.927C81.0123 18.6652 81.3769 18.4829 81.7713 18.3801C82.1691 18.2741 82.5602 18.2211 82.9446 18.2211C83.1899 18.2211 83.4716 18.2509 83.7898 18.3105C84.1113 18.3669 84.4212 18.4845 84.7195 18.6635C85.0211 18.8425 85.2713 19.1126 85.4702 19.4739C85.6691 19.8352 85.7685 20.3191 85.7685 20.9256V25.9568H84.5952V24.9228H84.5355C84.456 25.0885 84.3234 25.2658 84.1378 25.4547C83.9522 25.6436 83.7053 25.8044 83.3971 25.937C83.0888 26.0695 82.7126 26.1358 82.2685 26.1358ZM82.4475 25.0818C82.9115 25.0818 83.3026 24.9907 83.6208 24.8084C83.9423 24.6261 84.1842 24.3908 84.3466 24.1024C84.5123 23.8141 84.5952 23.5108 84.5952 23.1926V22.1188C84.5455 22.1784 84.4361 22.2331 84.2671 22.2828C84.1014 22.3292 83.9091 22.3707 83.6904 22.4071C83.4749 22.4403 83.2645 22.4701 83.059 22.4966C82.8568 22.5198 82.6927 22.5397 82.5668 22.5563C82.2619 22.5961 81.9768 22.6607 81.7117 22.7502C81.4498 22.8363 81.2377 22.9673 81.0753 23.1429C80.9162 23.3153 80.8367 23.5506 80.8367 23.8489C80.8367 24.2566 80.9875 24.5648 81.2891 24.7736C81.594 24.9791 81.9801 25.0818 82.4475 25.0818ZM87.91 25.9568V18.3205H89.0435V19.4739H89.1231C89.2623 19.0961 89.5142 18.7895 89.8788 18.5541C90.2433 18.3188 90.6543 18.2012 91.1117 18.2012C91.1979 18.2012 91.3056 18.2028 91.4349 18.2061C91.5641 18.2095 91.6619 18.2144 91.7282 18.2211V19.4142C91.6884 19.4043 91.5973 19.3894 91.4548 19.3695C91.3156 19.3463 91.1681 19.3347 91.0123 19.3347C90.6411 19.3347 90.3096 19.4126 90.018 19.5684C89.7296 19.7208 89.5009 19.9329 89.3319 20.2047C89.1662 20.4732 89.0833 20.7798 89.0833 21.1245V25.9568H87.91ZM97.0565 25.9568V18.3205H98.19V19.5137H98.2895C98.4485 19.106 98.7054 18.7895 99.0601 18.5641C99.4147 18.3354 99.8406 18.2211 100.338 18.2211C100.842 18.2211 101.261 18.3354 101.596 18.5641C101.934 18.7895 102.197 19.106 102.386 19.5137H102.466C102.661 19.1193 102.954 18.806 103.346 18.574C103.737 18.3387 104.206 18.2211 104.753 18.2211C105.435 18.2211 105.994 18.4348 106.428 18.8624C106.862 19.2866 107.079 19.9479 107.079 20.8461V25.9568H105.906V20.8461C105.906 20.2826 105.752 19.8799 105.444 19.638C105.135 19.396 104.772 19.275 104.355 19.275C103.818 19.275 103.402 19.4374 103.107 19.7622C102.812 20.0837 102.664 20.4914 102.664 20.9853V25.9568H101.471V20.7267C101.471 20.2925 101.33 19.9429 101.049 19.6777C100.767 19.4093 100.404 19.275 99.9599 19.275C99.655 19.275 99.3699 19.3562 99.1048 19.5186C98.843 19.681 98.6308 19.9064 98.4684 20.1948C98.3093 20.4798 98.2298 20.8096 98.2298 21.1841V25.9568H97.0565ZM112.426 26.1159C111.69 26.1159 111.056 25.9535 110.522 25.6287C109.992 25.3006 109.582 24.8432 109.294 24.2566C109.009 23.6666 108.867 22.9805 108.867 22.1983C108.867 21.4161 109.009 20.7267 109.294 20.1301C109.582 19.5302 109.983 19.0629 110.497 18.7282C111.014 18.3901 111.617 18.2211 112.307 18.2211C112.705 18.2211 113.097 18.2873 113.485 18.4199C113.873 18.5525 114.226 18.7679 114.544 19.0662C114.862 19.3612 115.116 19.7523 115.305 20.2395C115.494 20.7267 115.588 21.3266 115.588 22.0392V22.5364H109.702V21.5222H114.395C114.395 21.0913 114.309 20.7068 114.136 20.3688C113.967 20.0307 113.725 19.7639 113.411 19.5684C113.099 19.3728 112.731 19.275 112.307 19.275C111.84 19.275 111.435 19.391 111.094 19.623C110.756 19.8517 110.496 20.15 110.313 20.5179C110.131 20.8858 110.04 21.2802 110.04 21.7012V22.3773C110.04 22.954 110.139 23.4429 110.338 23.8439C110.54 24.2416 110.82 24.5449 111.178 24.7537C111.536 24.9592 111.952 25.062 112.426 25.062C112.734 25.062 113.013 25.0189 113.261 24.9327C113.513 24.8432 113.73 24.7106 113.913 24.535C114.095 24.356 114.236 24.1339 114.335 23.8688L115.469 24.187C115.349 24.5714 115.149 24.9095 114.867 25.2012C114.586 25.4895 114.237 25.7149 113.823 25.8773C113.409 26.0364 112.943 26.1159 112.426 26.1159ZM118.546 21.3631V25.9568H117.373V18.3205H118.506V19.5137H118.606C118.785 19.1259 119.057 18.8143 119.421 18.579C119.786 18.3404 120.256 18.2211 120.833 18.2211C121.35 18.2211 121.803 18.3271 122.19 18.5392C122.578 18.748 122.88 19.0662 123.095 19.4938C123.311 19.918 123.418 20.455 123.418 21.1046V25.9568H122.245V21.1841C122.245 20.5842 122.089 20.1169 121.778 19.7821C121.466 19.4441 121.039 19.275 120.495 19.275C120.121 19.275 119.786 19.3562 119.491 19.5186C119.199 19.681 118.969 19.918 118.8 20.2296C118.631 20.5411 118.546 20.919 118.546 21.3631ZM128.883 18.3205V19.3148H124.926V18.3205H128.883ZM126.079 16.4909H127.253V23.7693C127.253 24.1008 127.301 24.3494 127.397 24.5151C127.496 24.6775 127.622 24.7869 127.775 24.8432C127.93 24.8962 128.095 24.9228 128.267 24.9228C128.396 24.9228 128.502 24.9161 128.585 24.9029C128.668 24.8863 128.734 24.873 128.784 24.8631L129.023 25.9171C128.943 25.9469 128.832 25.9767 128.689 26.0066C128.547 26.0397 128.366 26.0563 128.148 26.0563C127.816 26.0563 127.491 25.985 127.173 25.8425C126.858 25.7 126.596 25.4829 126.388 25.1912C126.182 24.8996 126.079 24.5317 126.079 24.0875V16.4909ZM131.986 21.3631V25.9568H130.812V15.775H131.986V19.5137H132.085C132.264 19.1193 132.533 18.806 132.89 18.574C133.252 18.3387 133.732 18.2211 134.332 18.2211C134.853 18.2211 135.308 18.3255 135.699 18.5343C136.091 18.7398 136.394 19.0563 136.609 19.4838C136.828 19.9081 136.937 20.4483 136.937 21.1046V25.9568H135.764V21.1841C135.764 20.5776 135.607 20.1086 135.292 19.7772C134.98 19.4424 134.548 19.275 133.994 19.275C133.61 19.275 133.265 19.3562 132.96 19.5186C132.658 19.681 132.42 19.918 132.244 20.2296C132.072 20.5411 131.986 20.919 131.986 21.3631ZM142.186 26.1159C141.497 26.1159 140.892 25.9519 140.371 25.6238C139.854 25.2956 139.45 24.8366 139.158 24.2466C138.87 23.6567 138.726 22.9673 138.726 22.1784C138.726 21.383 138.87 20.6886 139.158 20.0953C139.45 19.5021 139.854 19.0414 140.371 18.7132C140.892 18.3851 141.497 18.2211 142.186 18.2211C142.876 18.2211 143.479 18.3851 143.996 18.7132C144.516 19.0414 144.92 19.5021 145.209 20.0953C145.501 20.6886 145.646 21.383 145.646 22.1784C145.646 22.9673 145.501 23.6567 145.209 24.2466C144.92 24.8366 144.516 25.2956 143.996 25.6238C143.479 25.9519 142.876 26.1159 142.186 26.1159ZM142.186 25.062C142.71 25.062 143.141 24.9277 143.479 24.6593C143.817 24.3908 144.067 24.0378 144.229 23.6003C144.392 23.1628 144.473 22.6889 144.473 22.1784C144.473 21.668 144.392 21.1924 144.229 20.7516C144.067 20.3108 143.817 19.9545 143.479 19.6827C143.141 19.4109 142.71 19.275 142.186 19.275C141.662 19.275 141.232 19.4109 140.894 19.6827C140.555 19.9545 140.305 20.3108 140.143 20.7516C139.98 21.1924 139.899 21.668 139.899 22.1784C139.899 22.6889 139.98 23.1628 140.143 23.6003C140.305 24.0378 140.555 24.3908 140.894 24.6593C141.232 24.9277 141.662 25.062 142.186 25.062ZM147.437 25.9568V18.3205H148.571V19.4739H148.65C148.79 19.0961 149.042 18.7895 149.406 18.5541C149.771 18.3188 150.182 18.2012 150.639 18.2012C150.725 18.2012 150.833 18.2028 150.962 18.2061C151.091 18.2095 151.189 18.2144 151.256 18.2211V19.4142C151.216 19.4043 151.125 19.3894 150.982 19.3695C150.843 19.3463 150.695 19.3347 150.54 19.3347C150.168 19.3347 149.837 19.4126 149.545 19.5684C149.257 19.7208 149.028 19.9329 148.859 20.2047C148.694 20.4732 148.611 20.7798 148.611 21.1245V25.9568H147.437ZM156.461 21.0449V22.1387H152.006V21.0449H156.461ZM158.525 25.9568V18.3205H159.699V25.9568H158.525ZM159.122 17.0478C158.893 17.0478 158.696 16.9699 158.53 16.8141C158.368 16.6583 158.287 16.4711 158.287 16.2523C158.287 16.0336 158.368 15.8463 158.53 15.6905C158.696 15.5347 158.893 15.4568 159.122 15.4568C159.351 15.4568 159.546 15.5347 159.708 15.6905C159.874 15.8463 159.957 16.0336 159.957 16.2523C159.957 16.4711 159.874 16.6583 159.708 16.8141C159.546 16.9699 159.351 17.0478 159.122 17.0478ZM164.95 26.1159C164.26 26.1159 163.656 25.9519 163.135 25.6238C162.618 25.2956 162.214 24.8366 161.922 24.2466C161.634 23.6567 161.49 22.9673 161.49 22.1784C161.49 21.383 161.634 20.6886 161.922 20.0953C162.214 19.5021 162.618 19.0414 163.135 18.7132C163.656 18.3851 164.26 18.2211 164.95 18.2211C165.639 18.2211 166.242 18.3851 166.759 18.7132C167.28 19.0414 167.684 19.5021 167.973 20.0953C168.264 20.6886 168.41 21.383 168.41 22.1784C168.41 22.9673 168.264 23.6567 167.973 24.2466C167.684 24.8366 167.28 25.2956 166.759 25.6238C166.242 25.9519 165.639 26.1159 164.95 26.1159ZM164.95 25.062C165.473 25.062 165.904 24.9277 166.242 24.6593C166.58 24.3908 166.831 24.0378 166.993 23.6003C167.156 23.1628 167.237 22.6889 167.237 22.1784C167.237 21.668 167.156 21.1924 166.993 20.7516C166.831 20.3108 166.58 19.9545 166.242 19.6827C165.904 19.4109 165.473 19.275 164.95 19.275C164.426 19.275 163.995 19.4109 163.657 19.6827C163.319 19.9545 163.069 20.3108 162.906 20.7516C162.744 21.1924 162.663 21.668 162.663 22.1784C162.663 22.6889 162.744 23.1628 162.906 23.6003C163.069 24.0378 163.319 24.3908 163.657 24.6593C163.995 24.9277 164.426 25.062 164.95 25.062ZM173.8 15.2978L170.519 27.4881H169.445L172.727 15.2978H173.8ZM175.191 25.9568V18.3205H176.325V19.5137H176.424C176.583 19.106 176.84 18.7895 177.195 18.5641C177.549 18.3354 177.975 18.2211 178.473 18.2211C178.976 18.2211 179.396 18.3354 179.73 18.5641C180.068 18.7895 180.332 19.106 180.521 19.5137H180.6C180.796 19.1193 181.089 18.806 181.48 18.574C181.871 18.3387 182.34 18.2211 182.887 18.2211C183.57 18.2211 184.129 18.4348 184.563 18.8624C184.997 19.2866 185.214 19.9479 185.214 20.8461V25.9568H184.041V20.8461C184.041 20.2826 183.887 19.8799 183.578 19.638C183.27 19.396 182.907 19.275 182.49 19.275C181.953 19.275 181.537 19.4374 181.242 19.7622C180.947 20.0837 180.799 20.4914 180.799 20.9853V25.9568H179.606V20.7267C179.606 20.2925 179.465 19.9429 179.183 19.6777C178.902 19.4093 178.539 19.275 178.095 19.275C177.79 19.275 177.505 19.3562 177.24 19.5186C176.978 19.681 176.766 19.9064 176.603 20.1948C176.444 20.4798 176.365 20.8096 176.365 21.1841V25.9568H175.191ZM190.561 26.1159C189.825 26.1159 189.19 25.9535 188.657 25.6287C188.127 25.3006 187.717 24.8432 187.429 24.2566C187.144 23.6666 187.001 22.9805 187.001 22.1983C187.001 21.4161 187.144 20.7267 187.429 20.1301C187.717 19.5302 188.118 19.0629 188.632 18.7282C189.149 18.3901 189.752 18.2211 190.442 18.2211C190.839 18.2211 191.232 18.2873 191.62 18.4199C192.008 18.5525 192.361 18.7679 192.679 19.0662C192.997 19.3612 193.251 19.7523 193.439 20.2395C193.628 20.7267 193.723 21.3266 193.723 22.0392V22.5364H187.837V21.5222H192.53C192.53 21.0913 192.444 20.7068 192.271 20.3688C192.102 20.0307 191.86 19.7639 191.545 19.5684C191.234 19.3728 190.866 19.275 190.442 19.275C189.974 19.275 189.57 19.391 189.229 19.623C188.89 19.8517 188.63 20.15 188.448 20.5179C188.266 20.8858 188.175 21.2802 188.175 21.7012V22.3773C188.175 22.954 188.274 23.4429 188.473 23.8439C188.675 24.2416 188.955 24.5449 189.313 24.7537C189.671 24.9592 190.087 25.062 190.561 25.062C190.869 25.062 191.148 25.0189 191.396 24.9327C191.648 24.8432 191.865 24.7106 192.047 24.535C192.23 24.356 192.371 24.1339 192.47 23.8688L193.604 24.187C193.484 24.5714 193.284 24.9095 193.002 25.2012C192.72 25.4895 192.372 25.7149 191.958 25.8773C191.544 26.0364 191.078 26.1159 190.561 26.1159ZM196.681 21.3631V25.9568H195.508V18.3205H196.641V19.5137H196.741C196.92 19.1259 197.191 18.8143 197.556 18.579C197.921 18.3404 198.391 18.2211 198.968 18.2211C199.485 18.2211 199.937 18.3271 200.325 18.5392C200.713 18.748 201.015 19.0662 201.23 19.4938C201.445 19.918 201.553 20.455 201.553 21.1046V25.9568H200.38V21.1841C200.38 20.5842 200.224 20.1169 199.913 19.7821C199.601 19.4441 199.173 19.275 198.63 19.275C198.255 19.275 197.921 19.3562 197.626 19.5186C197.334 19.681 197.104 19.918 196.935 20.2296C196.765 20.5411 196.681 20.919 196.681 21.3631ZM207.018 18.3205V19.3148H203.061V18.3205H207.018ZM204.214 16.4909H205.387V23.7693C205.387 24.1008 205.436 24.3494 205.532 24.5151C205.631 24.6775 205.757 24.7869 205.909 24.8432C206.065 24.8962 206.229 24.9228 206.402 24.9228C206.531 24.9228 206.637 24.9161 206.72 24.9029C206.803 24.8863 206.869 24.873 206.919 24.8631L207.157 25.9171C207.078 25.9469 206.967 25.9767 206.824 26.0066C206.682 26.0397 206.501 26.0563 206.282 26.0563C205.951 26.0563 205.626 25.985 205.308 25.8425C204.993 25.7 204.731 25.4829 204.522 25.1912C204.317 24.8996 204.214 24.5317 204.214 24.0875V16.4909ZM210.12 21.3631V25.9568H208.947V15.775H210.12V19.5137H210.22C210.399 19.1193 210.667 18.806 211.025 18.574C211.387 18.3387 211.867 18.2211 212.467 18.2211C212.987 18.2211 213.443 18.3255 213.834 18.5343C214.225 18.7398 214.529 19.0563 214.744 19.4838C214.963 19.9081 215.072 20.4483 215.072 21.1046V25.9568H213.899V21.1841C213.899 20.5776 213.741 20.1086 213.427 19.7772C213.115 19.4424 212.682 19.275 212.129 19.275C211.744 19.275 211.4 19.3562 211.095 19.5186C210.793 19.681 210.555 19.918 210.379 20.2296C210.207 20.5411 210.12 20.919 210.12 21.3631ZM220.321 26.1159C219.631 26.1159 219.027 25.9519 218.506 25.6238C217.989 25.2956 217.585 24.8366 217.293 24.2466C217.005 23.6567 216.861 22.9673 216.861 22.1784C216.861 21.383 217.005 20.6886 217.293 20.0953C217.585 19.5021 217.989 19.0414 218.506 18.7132C219.027 18.3851 219.631 18.2211 220.321 18.2211C221.01 18.2211 221.613 18.3851 222.131 18.7132C222.651 19.0414 223.055 19.5021 223.344 20.0953C223.635 20.6886 223.781 21.383 223.781 22.1784C223.781 22.9673 223.635 23.6567 223.344 24.2466C223.055 24.8366 222.651 25.2956 222.131 25.6238C221.613 25.9519 221.01 26.1159 220.321 26.1159ZM220.321 25.062C220.845 25.062 221.275 24.9277 221.613 24.6593C221.952 24.3908 222.202 24.0378 222.364 23.6003C222.527 23.1628 222.608 22.6889 222.608 22.1784C222.608 21.668 222.527 21.1924 222.364 20.7516C222.202 20.3108 221.952 19.9545 221.613 19.6827C221.275 19.4109 220.845 19.275 220.321 19.275C219.797 19.275 219.366 19.4109 219.028 19.6827C218.69 19.9545 218.44 20.3108 218.278 20.7516C218.115 21.1924 218.034 21.668 218.034 22.1784C218.034 22.6889 218.115 23.1628 218.278 23.6003C218.44 24.0378 218.69 24.3908 219.028 24.6593C219.366 24.9277 219.797 25.062 220.321 25.062ZM225.572 25.9568V18.3205H226.706V19.4739H226.785C226.924 19.0961 227.176 18.7895 227.541 18.5541C227.905 18.3188 228.316 18.2012 228.774 18.2012C228.86 18.2012 228.968 18.2028 229.097 18.2061C229.226 18.2095 229.324 18.2144 229.39 18.2211V19.4142C229.351 19.4043 229.259 19.3894 229.117 19.3695C228.978 19.3463 228.83 19.3347 228.674 19.3347C228.303 19.3347 227.972 19.4126 227.68 19.5684C227.392 19.7208 227.163 19.9329 226.994 20.2047C226.828 20.4732 226.745 20.7798 226.745 21.1245V25.9568H225.572Z" fill="black"/>
<rect x="0.5" y="1.45685" width="240.889" height="39" rx="7.5" stroke="white"/>
<defs>
<clipPath id="clip0_150_4146">
<rect width="18.8889" height="20" fill="white" transform="matrix(-1 0 0 1 30.8889 10.9568)"/>
</clipPath>
</defs>
</svg>
