<svg width="24" height="15" viewBox="0 0 24 15" fill="none" xmlns="http://www.w3.org/2000/svg">
<path fill-rule="evenodd" clip-rule="evenodd" d="M11.9187 0.849365C8.92328 0.849365 7.05161 2.33807 6.30241 5.31549C7.42577 3.82678 8.7362 3.26863 10.2337 3.64058C11.0881 3.85275 11.6991 4.46901 12.3748 5.1513C13.4761 6.26233 14.7509 7.54811 17.5346 7.54811C20.5297 7.54811 22.4018 6.05941 23.1505 3.08243C22.0276 4.57114 20.7172 5.12929 19.2197 4.7569C18.3648 4.54473 17.7538 3.92847 17.0782 3.24662C15.9768 2.13471 14.7025 0.849365 11.9187 0.849365ZM6.30241 7.54811C3.30739 7.54811 1.43528 9.03682 0.686523 12.0142C1.80988 10.5255 3.12031 9.96738 4.61738 10.3393C5.47222 10.5515 6.0832 11.1678 6.75889 11.8501C7.86023 12.9611 9.13457 14.2469 11.9187 14.2469C14.9138 14.2469 16.7859 12.7586 17.5346 9.78118C16.4113 11.2699 15.1009 11.828 13.6033 11.4561C12.7489 11.2435 12.138 10.6272 11.4623 9.94537C10.3609 8.83434 9.08615 7.54811 6.30241 7.54811Z" fill="#38BDF8"/>
</svg>
