<svg width="34" height="38" viewBox="0 0 34 38" fill="none" xmlns="http://www.w3.org/2000/svg">
<path d="M34 0H0L3 34L17 38L31 34L34 0Z" fill="#E65100"/>
<path d="M17 3V34.9L28.2 31.7L30.7 3H17Z" fill="#FF6D00"/>
<path d="M17 20V16H25.6L24.9 27.5L17 30.1V25.9L21.1 24.5L21.4 20H17ZM25.9 12L26.2 8H17V12H25.9Z" fill="white"/>
<path d="M16.9999 25.9V30.1L9.0999 27.5L8.6999 22H12.6999L12.8999 24.5L16.9999 25.9ZM12.0999 12H16.9999V8H7.8999L8.5999 20H16.9999V16H12.3999L12.0999 12Z" fill="#EEEEEE"/>
</svg>
