<svg width="54" height="58" viewBox="0 0 54 58" fill="none" xmlns="http://www.w3.org/2000/svg">
<path d="M46.9832 9.54985L33.9404 2.04591C29.6729 -0.415369 24.4437 -0.415369 20.1762 2.04591L7.07319 9.54985C2.86583 12.0111 0.221191 16.5735 0.221191 21.4361V36.5038C0.221191 41.4264 2.86583 45.9287 7.07319 48.39L20.1161 55.9539C24.3836 58.4152 29.6128 58.4152 33.8803 55.9539L46.9231 48.39C51.1906 45.9287 53.7752 41.4264 53.7752 36.5038V21.4361C53.8954 16.5735 51.2507 12.0111 46.9832 9.54985ZM27.0282 42.387C19.6353 42.387 13.6247 36.3838 13.6247 29C13.6247 21.6161 19.6353 15.613 27.0282 15.613C34.4212 15.613 40.4919 21.6161 40.4919 29C40.4919 36.3838 34.4813 42.387 27.0282 42.387Z" fill="black"/>
</svg>
