<svg width="34" height="24" viewBox="0 0 34 24" fill="none" xmlns="http://www.w3.org/2000/svg">
<path d="M18.9875 23.0677H31.2438C31.6348 23.0677 32.0092 22.9303 32.3479 22.7365C32.6866 22.5427 33.0358 22.2993 33.2313 21.9635C33.4267 21.6278 33.5627 21.2469 33.5625 20.8593C33.5623 20.4716 33.427 20.0909 33.2313 19.7553L24.95 5.51148C24.7545 5.17578 24.5157 4.93234 24.1771 4.73852C23.8384 4.54477 23.3535 4.40727 22.9625 4.40727C22.5715 4.40727 22.197 4.54477 21.8584 4.73852C21.5197 4.93234 21.2809 5.17578 21.0854 5.51148L18.9875 9.15523L14.7916 2.08828C14.596 1.75266 14.3575 1.39898 14.0188 1.20523C13.68 1.01141 13.3057 0.984375 12.9146 0.984375C12.5235 0.984375 12.1491 1.01141 11.8104 1.20523C11.4717 1.39898 11.1227 1.75266 10.9271 2.08828L0.658337 19.7553C0.462563 20.0909 0.437673 20.4716 0.437501 20.8593C0.437329 21.2469 0.46286 21.6277 0.658337 21.9635C0.853813 22.2992 1.20296 22.5427 1.54166 22.7365C1.88038 22.9303 2.25471 23.0677 2.64584 23.0677H10.375C13.4376 23.0677 15.6667 21.6939 17.2209 19.0927L20.975 12.5781L22.9625 9.15523L29.0354 19.5344H20.975L18.9875 23.0677ZM10.2646 19.5344H4.85414L12.9146 5.62188L17 12.5781L14.2938 17.2956C13.2618 18.9834 12.0851 19.5344 10.2646 19.5344Z" fill="#00DC82"/>
</svg>
