<svg width="44" height="44" viewBox="0 0 44 44" fill="none" xmlns="http://www.w3.org/2000/svg">
<path d="M21.8878 7.92627C14.1892 7.92627 7.92578 14.1897 7.92578 21.8883C7.92578 29.5869 14.1892 35.8503 21.8878 35.8503C29.5864 35.8503 35.8498 29.5869 35.8498 21.8883C35.8498 14.1897 29.5864 7.92627 21.8878 7.92627ZM21.8878 29.1137C17.8968 29.1137 14.6624 25.8793 14.6624 21.8883C14.6624 17.8973 17.8968 14.6629 21.8878 14.6629C25.8788 14.6629 29.1132 17.8973 29.1132 21.8883C29.1132 25.8793 25.8788 29.1137 21.8878 29.1137Z" fill="black"/>
<path fill-rule="evenodd" clip-rule="evenodd" d="M23.0581 5.63292V0.419922C34.3889 1.02572 43.3901 10.4065 43.3901 21.8881C43.3901 33.3697 34.3889 42.7479 23.0581 43.3563V38.1433C31.5029 37.5401 38.1901 30.4837 38.1901 21.8881C38.1901 13.2925 31.5029 6.23612 23.0581 5.63292ZM9.57452 32.5481C7.33592 29.9637 5.89292 26.6721 5.63552 23.0581H0.419922C0.690322 28.1151 2.71312 32.7041 5.88252 36.2375L9.57192 32.5481H9.57452ZM20.7182 43.3563V38.1433C17.1016 37.8859 13.81 36.4455 11.2256 34.2043L7.53622 37.8937C11.0722 41.0657 15.6612 43.0859 20.7156 43.3563H20.7182Z" fill="url(#paint0_linear_170_1936)"/>
<defs>
<linearGradient id="paint0_linear_170_1936" x1="23.9007" y1="3.43882" x2="2.76792" y2="24.5716" gradientUnits="userSpaceOnUse">
<stop stop-color="#0096FF"/>
<stop offset="1" stop-color="#FF1E56"/>
</linearGradient>
</defs>
</svg>
