<svg width="757" height="758" viewBox="0 0 757 758" fill="none" xmlns="http://www.w3.org/2000/svg">
<g style="mix-blend-mode:multiply">
<path d="M16.0904 393.586C23.9673 393.586 30.3528 387.199 30.3528 379.32C30.3528 371.441 23.9673 365.054 16.0904 365.054C8.21358 365.054 1.82812 371.441 1.82812 379.32C1.82812 387.199 8.21358 393.586 16.0904 393.586Z" stroke="#A1A1AA" stroke-miterlimit="10"/>
<path d="M21.5758 456.504C29.4527 456.504 35.8381 450.117 35.8381 442.238C35.8381 434.359 29.4527 427.971 21.5758 427.971C13.6989 427.971 7.31348 434.359 7.31348 442.238C7.31348 450.117 13.6989 456.504 21.5758 456.504Z" stroke="#A1A1AA" stroke-miterlimit="10"/>
<path d="M182.85 456.504C190.727 456.504 197.113 450.117 197.113 442.238C197.113 434.359 190.727 427.971 182.85 427.971C174.973 427.971 168.588 434.359 168.588 442.238C168.588 450.117 174.973 456.504 182.85 456.504Z" stroke="#A1A1AA" stroke-miterlimit="10"/>
<path d="M132.749 456.504C140.625 456.504 147.011 450.117 147.011 442.238C147.011 434.359 140.625 427.971 132.749 427.971C124.872 427.971 118.486 434.359 118.486 442.238C118.486 450.117 124.872 456.504 132.749 456.504Z" stroke="#A1A1AA" stroke-miterlimit="10"/>
<path d="M38.0328 517.592C45.9097 517.592 52.2951 511.205 52.2951 503.326C52.2951 495.447 45.9097 489.06 38.0328 489.06C30.156 489.06 23.7705 495.447 23.7705 503.326C23.7705 511.205 30.156 517.592 38.0328 517.592Z" stroke="#A1A1AA" stroke-miterlimit="10"/>
<path d="M64.7281 574.657C72.605 574.657 78.9905 568.269 78.9905 560.391C78.9905 552.512 72.605 546.124 64.7281 546.124C56.8513 546.124 50.4658 552.512 50.4658 560.391C50.4658 568.269 56.8513 574.657 64.7281 574.657Z" stroke="#A1A1AA" stroke-miterlimit="10"/>
<path d="M197.112 574.657C204.989 574.657 211.374 568.269 211.374 560.391C211.374 552.512 204.989 546.124 197.112 546.124C189.235 546.124 182.85 552.512 182.85 560.391C182.85 568.269 189.235 574.657 197.112 574.657Z" stroke="#A1A1AA" stroke-miterlimit="10"/>
<path d="M337.542 574.657C345.418 574.657 351.804 568.269 351.804 560.391C351.804 552.512 345.418 546.124 337.542 546.124C329.665 546.124 323.279 552.512 323.279 560.391C323.279 568.269 329.665 574.657 337.542 574.657Z" stroke="#A1A1AA" stroke-miterlimit="10"/>
<path d="M145.548 574.657C153.425 574.657 159.811 568.269 159.811 560.391C159.811 552.512 153.425 546.124 145.548 546.124C137.672 546.124 131.286 552.512 131.286 560.391C131.286 568.269 137.672 574.657 145.548 574.657Z" stroke="#A1A1AA" stroke-miterlimit="10"/>
<path d="M100.933 626.6C108.81 626.6 115.196 620.213 115.196 612.334C115.196 604.455 108.81 598.068 100.933 598.068C93.0564 598.068 86.6709 604.455 86.6709 612.334C86.6709 620.213 93.0564 626.6 100.933 626.6Z" stroke="#A1A1AA" stroke-miterlimit="10"/>
<path d="M145.548 671.227C153.425 671.227 159.811 664.84 159.811 656.961C159.811 649.082 153.425 642.695 145.548 642.695C137.672 642.695 131.286 649.082 131.286 656.961C131.286 664.84 137.672 671.227 145.548 671.227Z" stroke="#A1A1AA" stroke-miterlimit="10"/>
<path d="M197.112 707.441C204.989 707.441 211.374 701.054 211.374 693.175C211.374 685.296 204.989 678.909 197.112 678.909C189.235 678.909 182.85 685.296 182.85 693.175C182.85 701.054 189.235 707.441 197.112 707.441Z" stroke="#A1A1AA" stroke-miterlimit="10"/>
<path d="M254.527 734.145C262.404 734.145 268.789 727.758 268.789 719.879C268.789 712 262.404 705.612 254.527 705.612C246.65 705.612 240.265 712 240.265 719.879C240.265 727.758 246.65 734.145 254.527 734.145Z" stroke="#A1A1AA" stroke-miterlimit="10"/>
<path d="M254.527 671.227C262.404 671.227 268.789 664.84 268.789 656.961C268.789 649.082 262.404 642.695 254.527 642.695C246.65 642.695 240.265 649.082 240.265 656.961C240.265 664.84 246.65 671.227 254.527 671.227Z" stroke="#A1A1AA" stroke-miterlimit="10"/>
<path d="M315.599 750.606C323.476 750.606 329.862 744.219 329.862 736.34C329.862 728.461 323.476 722.073 315.599 722.073C307.722 722.073 301.337 728.461 301.337 736.34C301.337 744.219 307.722 750.606 315.599 750.606Z" stroke="#A1A1AA" stroke-miterlimit="10"/>
<path d="M400.076 710.734C407.953 710.734 414.338 704.347 414.338 696.468C414.338 688.589 407.953 682.201 400.076 682.201C392.199 682.201 385.813 688.589 385.813 696.468C385.813 704.347 392.199 710.734 400.076 710.734Z" stroke="#A1A1AA" stroke-miterlimit="10"/>
<path d="M378.5 756.093C386.376 756.093 392.762 749.706 392.762 741.827C392.762 733.948 386.376 727.56 378.5 727.56C370.623 727.56 364.237 733.948 364.237 741.827C364.237 749.706 370.623 756.093 378.5 756.093Z" stroke="#A1A1AA" stroke-miterlimit="10"/>
<path d="M365.335 671.227C373.211 671.227 379.597 664.84 379.597 656.961C379.597 649.082 373.211 642.695 365.335 642.695C357.458 642.695 351.072 649.082 351.072 656.961C351.072 664.84 357.458 671.227 365.335 671.227Z" stroke="#A1A1AA" stroke-miterlimit="10"/>
<path d="M378.5 626.6C386.376 626.6 392.762 620.213 392.762 612.334C392.762 604.455 386.376 598.068 378.5 598.068C370.623 598.068 364.237 604.455 364.237 612.334C364.237 620.213 370.623 626.6 378.5 626.6Z" stroke="#A1A1AA" stroke-miterlimit="10"/>
<path d="M441.4 750.606C449.277 750.606 455.662 744.219 455.662 736.34C455.662 728.461 449.277 722.073 441.4 722.073C433.523 722.073 427.138 728.461 427.138 736.34C427.138 744.219 433.523 750.606 441.4 750.606Z" stroke="#A1A1AA" stroke-miterlimit="10"/>
<path d="M441.4 519.055C449.277 519.055 455.662 512.668 455.662 504.789C455.662 496.91 449.277 490.523 441.4 490.523C433.523 490.523 427.138 496.91 427.138 504.789C427.138 512.668 433.523 519.055 441.4 519.055Z" stroke="#A1A1AA" stroke-miterlimit="10"/>
<path d="M421.652 582.338C429.529 582.338 435.914 575.951 435.914 568.072C435.914 560.193 429.529 553.806 421.652 553.806C413.775 553.806 407.39 560.193 407.39 568.072C407.39 575.951 413.775 582.338 421.652 582.338Z" stroke="#A1A1AA" stroke-miterlimit="10"/>
<path d="M315.599 456.504C323.476 456.504 329.862 450.117 329.862 442.238C329.862 434.359 323.476 427.971 315.599 427.971C307.722 427.971 301.337 434.359 301.337 442.238C301.337 450.117 307.722 456.504 315.599 456.504Z" stroke="#A1A1AA" stroke-miterlimit="10"/>
<path d="M243.556 401.268C251.433 401.268 257.819 394.881 257.819 387.002C257.819 379.123 251.433 372.736 243.556 372.736C235.679 372.736 229.294 379.123 229.294 387.002C229.294 394.881 235.679 401.268 243.556 401.268Z" stroke="#D4D4D8" stroke-miterlimit="10"/>
<path d="M502.472 734.145C510.349 734.145 516.735 727.758 516.735 719.879C516.735 712 510.349 705.612 502.472 705.612C494.595 705.612 488.21 712 488.21 719.879C488.21 727.758 494.595 734.145 502.472 734.145Z" stroke="#A1A1AA" stroke-miterlimit="10"/>
<path d="M502.472 643.061C510.349 643.061 516.735 636.674 516.735 628.795C516.735 620.916 510.349 614.529 502.472 614.529C494.595 614.529 488.21 620.916 488.21 628.795C488.21 636.674 494.595 643.061 502.472 643.061Z" stroke="#A1A1AA" stroke-miterlimit="10"/>
<path d="M502.472 574.657C510.349 574.657 516.735 568.269 516.735 560.391C516.735 552.512 510.349 546.124 502.472 546.124C494.595 546.124 488.21 552.512 488.21 560.391C488.21 568.269 494.595 574.657 502.472 574.657Z" stroke="#A1A1AA" stroke-miterlimit="10"/>
<path d="M502.472 517.592C510.349 517.592 516.735 511.205 516.735 503.326C516.735 495.447 510.349 489.06 502.472 489.06C494.595 489.06 488.21 495.447 488.21 503.326C488.21 511.205 494.595 517.592 502.472 517.592Z" stroke="#A1A1AA" stroke-miterlimit="10"/>
<path d="M559.521 707.441C567.398 707.441 573.783 701.054 573.783 693.175C573.783 685.296 567.398 678.909 559.521 678.909C551.644 678.909 545.259 685.296 545.259 693.175C545.259 701.054 551.644 707.441 559.521 707.441Z" stroke="#A1A1AA" stroke-miterlimit="10"/>
<path d="M611.451 671.227C619.328 671.227 625.713 664.84 625.713 656.961C625.713 649.082 619.328 642.695 611.451 642.695C603.574 642.695 597.188 649.082 597.188 656.961C597.188 664.84 603.574 671.227 611.451 671.227Z" stroke="#A1A1AA" stroke-miterlimit="10"/>
<path d="M611.451 574.657C619.328 574.657 625.713 568.269 625.713 560.391C625.713 552.512 619.328 546.124 611.451 546.124C603.574 546.124 597.188 552.512 597.188 560.391C597.188 568.269 603.574 574.657 611.451 574.657Z" stroke="#A1A1AA" stroke-miterlimit="10"/>
<path d="M656.066 626.6C663.943 626.6 670.328 620.213 670.328 612.334C670.328 604.455 663.943 598.068 656.066 598.068C648.189 598.068 641.804 604.455 641.804 612.334C641.804 620.213 648.189 626.6 656.066 626.6Z" stroke="#A1A1AA" stroke-miterlimit="10"/>
<path d="M692.27 574.657C700.147 574.657 706.532 568.269 706.532 560.391C706.532 552.512 700.147 546.124 692.27 546.124C684.393 546.124 678.008 552.512 678.008 560.391C678.008 568.269 684.393 574.657 692.27 574.657Z" stroke="#A1A1AA" stroke-miterlimit="10"/>
<path d="M718.966 517.592C726.843 517.592 733.229 511.205 733.229 503.326C733.229 495.447 726.843 489.06 718.966 489.06C711.09 489.06 704.704 495.447 704.704 503.326C704.704 511.205 711.09 517.592 718.966 517.592Z" stroke="#A1A1AA" stroke-miterlimit="10"/>
<path d="M735.423 456.504C743.3 456.504 749.686 450.117 749.686 442.238C749.686 434.359 743.3 427.971 735.423 427.971C727.547 427.971 721.161 434.359 721.161 442.238C721.161 450.117 727.547 456.504 735.423 456.504Z" stroke="#A1A1AA" stroke-miterlimit="10"/>
<path d="M740.909 393.586C748.786 393.586 755.171 387.199 755.171 379.32C755.171 371.441 748.786 365.054 740.909 365.054C733.032 365.054 726.646 371.441 726.646 379.32C726.646 387.199 733.032 393.586 740.909 393.586Z" stroke="#A1A1AA" stroke-miterlimit="10"/>
<path d="M735.423 330.669C743.3 330.669 749.686 324.282 749.686 316.403C749.686 308.524 743.3 302.137 735.423 302.137C727.547 302.137 721.161 308.524 721.161 316.403C721.161 324.282 727.547 330.669 735.423 330.669Z" stroke="#A1A1AA" stroke-miterlimit="10"/>
<path d="M718.966 269.581C726.843 269.581 733.229 263.194 733.229 255.315C733.229 247.436 726.843 241.048 718.966 241.048C711.09 241.048 704.704 247.436 704.704 255.315C704.704 263.194 711.09 269.581 718.966 269.581Z" stroke="#A1A1AA" stroke-miterlimit="10"/>
<path d="M692.27 212.15C700.147 212.15 706.532 205.763 706.532 197.884C706.532 190.005 700.147 183.618 692.27 183.618C684.393 183.618 678.008 190.005 678.008 197.884C678.008 205.763 684.393 212.15 692.27 212.15Z" stroke="#A1A1AA" stroke-miterlimit="10"/>
<path d="M656.066 160.573C663.943 160.573 670.328 154.186 670.328 146.307C670.328 138.428 663.943 132.041 656.066 132.041C648.189 132.041 641.804 138.428 641.804 146.307C641.804 154.186 648.189 160.573 656.066 160.573Z" stroke="#A1A1AA" stroke-miterlimit="10"/>
<path d="M611.451 115.945C619.328 115.945 625.713 109.558 625.713 101.679C625.713 93.8003 619.328 87.4131 611.451 87.4131C603.574 87.4131 597.188 93.8003 597.188 101.679C597.188 109.558 603.574 115.945 611.451 115.945Z" stroke="#A1A1AA" stroke-miterlimit="10"/>
<path d="M621.69 330.669C629.567 330.669 635.952 324.282 635.952 316.403C635.952 308.524 629.567 302.137 621.69 302.137C613.813 302.137 607.428 308.524 607.428 316.403C607.428 324.282 613.813 330.669 621.69 330.669Z" stroke="#A1A1AA" stroke-miterlimit="10"/>
<path d="M494.793 321.524C502.669 321.524 509.055 315.137 509.055 307.258C509.055 299.379 502.669 292.992 494.793 292.992C486.916 292.992 480.53 299.379 480.53 307.258C480.53 315.137 486.916 321.524 494.793 321.524Z" stroke="#A1A1AA" stroke-miterlimit="10"/>
<path d="M442.863 321.524C450.74 321.524 457.125 315.137 457.125 307.258C457.125 299.379 450.74 292.992 442.863 292.992C434.986 292.992 428.601 299.379 428.601 307.258C428.601 315.137 434.986 321.524 442.863 321.524Z" stroke="#A1A1AA" stroke-miterlimit="10"/>
<path d="M394.225 321.524C402.102 321.524 408.488 315.137 408.488 307.258C408.488 299.379 402.102 292.992 394.225 292.992C386.348 292.992 379.963 299.379 379.963 307.258C379.963 315.137 386.348 321.524 394.225 321.524Z" stroke="#A1A1AA" stroke-miterlimit="10"/>
<path d="M556.962 330.669C564.838 330.669 571.224 324.282 571.224 316.403C571.224 308.524 564.838 302.137 556.962 302.137C549.085 302.137 542.699 308.524 542.699 316.403C542.699 324.282 549.085 330.669 556.962 330.669Z" stroke="#A1A1AA" stroke-miterlimit="10"/>
<path d="M618.399 269.581C626.276 269.581 632.661 263.194 632.661 255.315C632.661 247.436 626.276 241.048 618.399 241.048C610.522 241.048 604.137 247.436 604.137 255.315C604.137 263.194 610.522 269.581 618.399 269.581Z" stroke="#A1A1AA" stroke-miterlimit="10"/>
<path d="M559.521 79.7313C567.398 79.7313 573.783 73.3442 573.783 65.4652C573.783 57.5862 567.398 51.1991 559.521 51.1991C551.644 51.1991 545.259 57.5862 545.259 65.4652C545.259 73.3442 551.644 79.7313 559.521 79.7313Z" stroke="#A1A1AA" stroke-miterlimit="10"/>
<path d="M559.521 146.307C567.398 146.307 573.783 139.919 573.783 132.041C573.783 124.162 567.398 117.774 559.521 117.774C551.644 117.774 545.259 124.162 545.259 132.041C545.259 139.919 551.644 146.307 559.521 146.307Z" stroke="#A1A1AA" stroke-miterlimit="10"/>
<path d="M481.261 212.15C489.138 212.15 495.524 205.763 495.524 197.884C495.524 190.005 489.138 183.618 481.261 183.618C473.385 183.618 466.999 190.005 466.999 197.884C466.999 205.763 473.385 212.15 481.261 212.15Z" stroke="#A1A1AA" stroke-miterlimit="10"/>
<path d="M548.55 206.663C556.427 206.663 562.813 200.276 562.813 192.397C562.813 184.518 556.427 178.131 548.55 178.131C540.674 178.131 534.288 184.518 534.288 192.397C534.288 200.276 540.674 206.663 548.55 206.663Z" stroke="#A1A1AA" stroke-miterlimit="10"/>
<path d="M502.472 53.028C510.349 53.028 516.735 46.6409 516.735 38.7619C516.735 30.8829 510.349 24.4958 502.472 24.4958C494.595 24.4958 488.21 30.8829 488.21 38.7619C488.21 46.6409 494.595 53.028 502.472 53.028Z" stroke="#A1A1AA" stroke-miterlimit="10"/>
<path d="M428.6 168.255C436.477 168.255 442.863 161.867 442.863 153.988C442.863 146.109 436.477 139.722 428.6 139.722C420.723 139.722 414.338 146.109 414.338 153.988C414.338 161.867 420.723 168.255 428.6 168.255Z" stroke="#A1A1AA" stroke-miterlimit="10"/>
<path d="M441.4 36.5671C449.277 36.5671 455.662 30.1799 455.662 22.301C455.662 14.422 449.277 8.03484 441.4 8.03484C433.523 8.03484 427.138 14.422 427.138 22.301C427.138 30.1799 433.523 36.5671 441.4 36.5671Z" stroke="#A1A1AA" stroke-miterlimit="10"/>
<path d="M378.5 31.0801C386.376 31.0801 392.762 24.693 392.762 16.814C392.762 8.93502 386.376 2.54785 378.5 2.54785C370.623 2.54785 364.237 8.93502 364.237 16.814C364.237 24.693 370.623 31.0801 378.5 31.0801Z" stroke="#A1A1AA" stroke-miterlimit="10"/>
<path d="M315.599 36.5671C323.476 36.5671 329.862 30.1799 329.862 22.301C329.862 14.422 323.476 8.03484 315.599 8.03484C307.722 8.03484 301.337 14.422 301.337 22.301C301.337 30.1799 307.722 36.5671 315.599 36.5671Z" stroke="#A1A1AA" stroke-miterlimit="10"/>
<path d="M291.829 163.499C299.706 163.499 306.091 157.112 306.091 149.233C306.091 141.354 299.706 134.967 291.829 134.967C283.952 134.967 277.566 141.354 277.566 149.233C277.566 157.112 283.952 163.499 291.829 163.499Z" stroke="#A1A1AA" stroke-miterlimit="10"/>
<path d="M315.599 113.019C323.476 113.019 329.862 106.632 329.862 98.7528C329.862 90.8739 323.476 84.4867 315.599 84.4867C307.722 84.4867 301.337 90.8739 301.337 98.7528C301.337 106.632 307.722 113.019 315.599 113.019Z" stroke="#A1A1AA" stroke-miterlimit="10"/>
<path d="M254.527 53.028C262.404 53.028 268.789 46.6409 268.789 38.7619C268.789 30.8829 262.404 24.4958 254.527 24.4958C246.65 24.4958 240.265 30.8829 240.265 38.7619C240.265 46.6409 246.65 53.028 254.527 53.028Z" stroke="#A1A1AA" stroke-miterlimit="10"/>
<path d="M197.112 79.7313C204.989 79.7313 211.374 73.3442 211.374 65.4652C211.374 57.5862 204.989 51.1991 197.112 51.1991C189.235 51.1991 182.85 57.5862 182.85 65.4652C182.85 73.3442 189.235 79.7313 197.112 79.7313Z" stroke="#A1A1AA" stroke-miterlimit="10"/>
<path d="M219.054 172.278C226.931 172.278 233.317 165.891 233.317 158.012C233.317 150.133 226.931 143.746 219.054 143.746C211.177 143.746 204.792 150.133 204.792 158.012C204.792 165.891 211.177 172.278 219.054 172.278Z" stroke="#A1A1AA" stroke-miterlimit="10"/>
<path d="M145.548 115.945C153.425 115.945 159.811 109.558 159.811 101.679C159.811 93.8003 153.425 87.4131 145.548 87.4131C137.672 87.4131 131.286 93.8003 131.286 101.679C131.286 109.558 137.672 115.945 145.548 115.945Z" stroke="#A1A1AA" stroke-miterlimit="10"/>
<path d="M100.933 160.573C108.81 160.573 115.196 154.186 115.196 146.307C115.196 138.428 108.81 132.041 100.933 132.041C93.0564 132.041 86.6709 138.428 86.6709 146.307C86.6709 154.186 93.0564 160.573 100.933 160.573Z" stroke="#A1A1AA" stroke-miterlimit="10"/>
<path d="M177.73 209.224C185.607 209.224 191.992 202.837 191.992 194.958C191.992 187.079 185.607 180.692 177.73 180.692C169.853 180.692 163.468 187.079 163.468 194.958C163.468 202.837 169.853 209.224 177.73 209.224Z" stroke="#A1A1AA" stroke-miterlimit="10"/>
<path d="M64.7281 212.15C72.605 212.15 78.9905 205.763 78.9905 197.884C78.9905 190.005 72.605 183.618 64.7281 183.618C56.8513 183.618 50.4658 190.005 50.4658 197.884C50.4658 205.763 56.8513 212.15 64.7281 212.15Z" stroke="#A1A1AA" stroke-miterlimit="10"/>
<path d="M38.0328 269.581C45.9097 269.581 52.2951 263.194 52.2951 255.315C52.2951 247.436 45.9097 241.048 38.0328 241.048C30.156 241.048 23.7705 247.436 23.7705 255.315C23.7705 263.194 30.156 269.581 38.0328 269.581Z" stroke="#A1A1AA" stroke-miterlimit="10"/>
<path d="M378.5 406.024C386.376 406.024 392.762 399.636 392.762 391.757C392.762 383.878 386.376 377.491 378.5 377.491C370.623 377.491 364.237 383.878 364.237 391.757C364.237 399.636 370.623 406.024 378.5 406.024Z" stroke="#D4D4D8" stroke-miterlimit="10"/>
<path d="M441.4 416.632C449.277 416.632 455.662 410.245 455.662 402.366C455.662 394.487 449.277 388.099 441.4 388.099C433.523 388.099 427.138 394.487 427.138 402.366C427.138 410.245 433.523 416.632 441.4 416.632Z" stroke="#A1A1AA" stroke-miterlimit="10"/>
<path d="M593.166 476.257C601.042 476.257 607.428 469.87 607.428 461.991C607.428 454.112 601.042 447.725 593.166 447.725C585.289 447.725 578.903 454.112 578.903 461.991C578.903 469.87 585.289 476.257 593.166 476.257Z" stroke="#A1A1AA" stroke-miterlimit="10"/>
<path d="M477.604 367.981C485.481 367.981 491.866 361.593 491.866 353.714C491.866 345.835 485.481 339.448 477.604 339.448C469.727 339.448 463.342 345.835 463.342 353.714C463.342 361.593 469.727 367.981 477.604 367.981Z" stroke="#A1A1AA" stroke-miterlimit="10"/>
<path d="M21.5758 330.669C29.4527 330.669 35.8381 324.282 35.8381 316.403C35.8381 308.524 29.4527 302.137 21.5758 302.137C13.6989 302.137 7.31348 308.524 7.31348 316.403C7.31348 324.282 13.6989 330.669 21.5758 330.669Z" stroke="#A1A1AA" stroke-miterlimit="10"/>
<path d="M74.9684 330.669C82.8452 330.669 89.2307 324.282 89.2307 316.403C89.2307 308.524 82.8452 302.137 74.9684 302.137C67.0915 302.137 60.7061 308.524 60.7061 316.403C60.7061 324.282 67.0915 330.669 74.9684 330.669Z" stroke="#A1A1AA" stroke-miterlimit="10"/>
<path d="M152.497 344.935C160.374 344.935 166.759 338.548 166.759 330.669C166.759 322.79 160.374 316.403 152.497 316.403C144.62 316.403 138.234 322.79 138.234 330.669C138.234 338.548 144.62 344.935 152.497 344.935Z" stroke="#A1A1AA" stroke-miterlimit="10"/>
<path d="M197.112 266.289C204.989 266.289 211.374 259.901 211.374 252.022C211.374 244.143 204.989 237.756 197.112 237.756C189.235 237.756 182.85 244.143 182.85 252.022C182.85 259.901 189.235 266.289 197.112 266.289Z" stroke="#D4D4D8" stroke-miterlimit="10"/>
<path d="M260.744 266.289C268.621 266.289 275.006 259.901 275.006 252.022C275.006 244.143 268.621 237.756 260.744 237.756C252.867 237.756 246.481 244.143 246.481 252.022C246.481 259.901 252.867 266.289 260.744 266.289Z" stroke="#A1A1AA" stroke-miterlimit="10"/>
<path d="M197.112 316.403C204.989 316.403 211.374 310.016 211.374 302.137C211.374 294.258 204.989 287.871 197.112 287.871C189.235 287.871 182.85 294.258 182.85 302.137C182.85 310.016 189.235 316.403 197.112 316.403Z" stroke="#A1A1AA" stroke-miterlimit="10"/>
<path d="M315.599 266.289C323.476 266.289 329.862 259.901 329.862 252.022C329.862 244.143 323.476 237.756 315.599 237.756C307.722 237.756 301.337 244.143 301.337 252.022C301.337 259.901 307.722 266.289 315.599 266.289Z" stroke="#A1A1AA" stroke-miterlimit="10"/>
<path d="M30.3525 379.32H182.484L260.744 300.674V266.289" stroke="#A1A1AA" stroke-miterlimit="10"/>
<path d="M378.5 406.024V442.238L316.331 504.058H121.046L74.6025 550.514" stroke="#D4D4D8" stroke-miterlimit="10"/>
<path d="M211.374 560.391H323.278" stroke="#A1A1AA" stroke-miterlimit="10"/>
<path d="M60.7055 316.403H35.8379" stroke="#A1A1AA" stroke-miterlimit="10"/>
<path d="M559.521 117.774V79.7313" stroke="#A1A1AA" stroke-miterlimit="10"/>
<path d="M512.346 513.203L559.521 560.391V678.909" stroke="#A1A1AA" stroke-miterlimit="10"/>
<path d="M611.451 642.695V574.657" stroke="#A1A1AA" stroke-miterlimit="10"/>
<path d="M641.804 612.334H611.451" stroke="#A1A1AA" stroke-miterlimit="10"/>
<path d="M502.472 705.612V643.061" stroke="#A1A1AA" stroke-miterlimit="10"/>
<path d="M492.233 570.633L441.4 621.479V722.073" stroke="#A1A1AA" stroke-miterlimit="10"/>
<path d="M142.623 320.427L77.5283 255.315H52.2949" stroke="#A1A1AA" stroke-miterlimit="10"/>
<path d="M631.93 306.161L682.762 255.315H704.704" stroke="#A1A1AA" stroke-miterlimit="10"/>
<path d="M721.161 316.403H683.859L620.959 379.32H566.469L504.666 317.5" stroke="#A1A1AA" stroke-miterlimit="10"/>
<path d="M253.796 376.76L374.111 256.412H545.991L645.827 156.183" stroke="#D4D4D8" stroke-miterlimit="10"/>
<path d="M368.26 731.584L314.136 677.446V612.334H115.195" stroke="#A1A1AA" stroke-miterlimit="10"/>
<path d="M145.549 574.657V612.334" stroke="#A1A1AA" stroke-miterlimit="10"/>
<path d="M254.527 705.613V671.227" stroke="#A1A1AA" stroke-miterlimit="10"/>
<path d="M726.646 379.32H607.428" stroke="#A1A1AA" stroke-miterlimit="10"/>
<path d="M708.727 493.084L636.684 421.021L543.43 420.29L525.145 402.366H455.662" stroke="#A1A1AA" stroke-miterlimit="10"/>
<path d="M197.112 442.969H254.527L343.758 353.714H463.342" stroke="#A1A1AA" stroke-miterlimit="10"/>
<path d="M197.112 678.909V656.961H159.811" stroke="#A1A1AA" stroke-miterlimit="10"/>
<path d="M379.597 656.961H441.4" stroke="#A1A1AA" stroke-miterlimit="10"/>
<path d="M431.526 557.83L441.4 548.319V519.055" stroke="#A1A1AA" stroke-miterlimit="10"/>
<path d="M678.008 197.884H604.137" stroke="#A1A1AA" stroke-miterlimit="10"/>
<path d="M608.525 265.191L567.201 306.526" stroke="#A1A1AA" stroke-miterlimit="10"/>
<path d="M47.9062 493.084L99.1043 442.238" stroke="#A1A1AA" stroke-miterlimit="10"/>
<path d="M408.487 307.258H428.601" stroke="#A1A1AA" stroke-miterlimit="10"/>
<path d="M682.031 550.514L635.587 504.058H564.275L502.838 442.969H438.109L378.134 502.96V598.068" stroke="#A1A1AA" stroke-miterlimit="10"/>
<path d="M305.36 452.114L255.259 502.594" stroke="#A1A1AA" stroke-miterlimit="10"/>
<path d="M441.4 36.5671V65.4652L311.942 194.592H255.625L207.718 242.512" stroke="#D4D4D8" stroke-miterlimit="10"/>
<path d="M325.473 242.146L369.722 197.884H467.364" stroke="#A1A1AA" stroke-miterlimit="10"/>
<path d="M721.161 442.238H657.895" stroke="#A1A1AA" stroke-miterlimit="10"/>
<path d="M78.9912 197.884H106.419L145.183 159.11V115.945" stroke="#A1A1AA" stroke-miterlimit="10"/>
<path d="M97.2764 275.434L167.857 204.834" stroke="#A1A1AA" stroke-miterlimit="10"/>
<path d="M438.475 143.746L502.472 80.0971V53.028" stroke="#A1A1AA" stroke-miterlimit="10"/>
<path d="M538.311 182.155L469.193 113.385" stroke="#A1A1AA" stroke-miterlimit="10"/>
<path d="M197.112 79.7313V113.019H254.527" stroke="#A1A1AA" stroke-miterlimit="10"/>
<path d="M378.5 31.0801V128.383" stroke="#A1A1AA" stroke-miterlimit="10"/>
<path d="M281.589 139.356L254.527 111.922V53.028" stroke="#A1A1AA" stroke-miterlimit="10"/>
<path d="M255.624 194.592L228.928 167.889" stroke="#A1A1AA" stroke-miterlimit="10"/>
<path d="M315.6 36.5671V84.4867" stroke="#A1A1AA" stroke-miterlimit="10"/>
<path d="M35.8379 442.238H118.486" stroke="#A1A1AA" stroke-miterlimit="10"/>
</g>
</svg>
