<svg width="1110" height="655" viewBox="0 0 1110 655" fill="none" xmlns="http://www.w3.org/2000/svg">
<path d="M11.9479 722.156V-67ZM61.2812 722.156V-67ZM110.615 722.156V-67ZM159.948 722.156V-67ZM209.281 722.156V-67ZM258.615 722.156V-67ZM307.948 722.156V-67ZM357.281 722.156V-67ZM406.615 722.156V-67ZM455.948 722.156V-67ZM505.281 722.156V-67ZM554.615 722.156V-67ZM603.948 722.156V-67ZM653.281 722.156V-67ZM702.615 722.156V-67ZM751.948 722.156V-67ZM801.281 722.156V-67ZM850.615 722.156V-67ZM899.948 722.156V-67ZM949.281 722.156V-67ZM998.615 722.156V-67ZM1047.95 722.156V-67ZM1097.28 722.156V-67ZM0 -42.7242H1110ZM0 6.59806H1110ZM0 55.9203H1110ZM0 105.243H1110ZM0 154.565H1110ZM0 203.887H1110ZM0 253.209H1110ZM0 302.532H1110ZM0 351.854H1110ZM0 401.176H1110ZM0 450.498H1110ZM0 499.821H1110ZM0 549.143H1110ZM0 598.465H1110ZM0 647.787H1110ZM0 697.11H1110Z" fill="black"/>
<path d="M11.9479 722.156V-67M61.2812 722.156V-67M110.615 722.156V-67M159.948 722.156V-67M209.281 722.156V-67M258.615 722.156V-67M307.948 722.156V-67M357.281 722.156V-67M406.615 722.156V-67M455.948 722.156V-67M505.281 722.156V-67M554.615 722.156V-67M603.948 722.156V-67M653.281 722.156V-67M702.615 722.156V-67M751.948 722.156V-67M801.281 722.156V-67M850.615 722.156V-67M899.948 722.156V-67M949.281 722.156V-67M998.615 722.156V-67M1047.95 722.156V-67M1097.28 722.156V-67M0 -42.7242H1110M0 6.59806H1110M0 55.9203H1110M0 105.243H1110M0 154.565H1110M0 203.887H1110M0 253.209H1110M0 302.532H1110M0 351.854H1110M0 401.176H1110M0 450.498H1110M0 499.821H1110M0 549.143H1110M0 598.465H1110M0 647.787H1110M0 697.11H1110" stroke="#E4E4E7"/>
<path d="M209.667 56.3057H258.229V104.857H209.667V56.3057Z" fill="#FAFAFA"/>
<path d="M900.333 549.528H948.896V598.08H900.333V549.528Z" fill="#FAFAFA"/>
<path d="M407 6.9834H455.563V55.535H407V6.9834Z" fill="#FAFAFA"/>
<path d="M851 56.3057H899.563V104.857H851V56.3057Z" fill="#FAFAFA"/>
<path d="M949.667 204.272H998.229V252.824H949.667V204.272Z" fill="#FAFAFA"/>
<path d="M801.667 450.884H850.229V499.435H801.667V450.884Z" fill="#FAFAFA"/>
<path d="M821.229 476.851C820.184 477.147 819.498 477.668 819.046 478.187C819.479 477.809 820.059 477.461 820.84 477.24C821.64 477.013 822.322 477.015 822.886 477.123L822.886 476.683C822.405 476.639 821.854 476.674 821.229 476.851ZM818.999 473.146L815.117 474.168C815.117 474.168 815.188 474.268 815.319 474.402L818.61 473.534C818.61 473.534 818.563 474.135 818.158 474.673C818.924 474.093 818.999 473.146 818.999 473.146ZM822.248 482.268C816.785 483.74 813.895 477.409 813.02 474.123C812.616 472.606 812.439 471.458 812.392 470.716C812.387 470.639 812.39 470.575 812.395 470.515C812.112 470.532 811.976 470.68 812.004 471.105C812.051 471.846 812.227 472.995 812.631 474.512C813.506 477.797 816.396 484.128 821.859 482.657C823.048 482.336 823.941 481.753 824.612 481.008C823.994 481.566 823.22 482.006 822.248 482.268ZM823.274 469.271L823.274 469.66L825.417 469.66C825.373 469.522 825.329 469.398 825.285 469.271L823.274 469.271Z" fill="#E4E4E7"/>
<path d="M825.895 472.473C826.858 472.747 827.368 473.422 827.637 474.02L828.712 474.325C828.712 474.325 828.565 472.233 826.673 471.695C824.902 471.192 823.812 472.679 823.68 472.871C824.195 472.504 824.947 472.204 825.895 472.473ZM834.447 474.03C832.675 473.524 831.586 475.014 831.455 475.204C831.971 474.837 832.723 474.537 833.67 474.807C834.632 475.081 835.141 475.756 835.411 476.354L836.487 476.661C836.487 476.661 836.338 474.568 834.447 474.03ZM833.38 479.547L824.442 477.048C824.442 477.048 824.539 477.539 824.91 478.174L832.435 480.278C833.055 479.919 833.38 479.547 833.38 479.547ZM827.183 484.925C820.106 483.028 820.962 474.011 822.107 469.738C822.579 467.977 823.063 466.668 823.465 465.791C823.225 465.741 823.027 465.868 822.83 466.267C822.404 467.133 821.858 468.542 821.33 470.515C820.185 474.788 819.329 483.805 826.406 485.702C829.742 486.596 832.34 485.238 834.277 483.105C832.438 484.77 830.091 485.704 827.183 484.925Z" fill="#E4E4E7"/>
<path d="M823.274 480.155L823.274 478.336L818.218 479.769C818.218 479.769 818.592 477.599 821.229 476.851C822.028 476.624 822.71 476.626 823.274 476.735L823.274 469.271L825.805 469.271C825.53 468.419 825.263 467.764 825.039 467.308C824.669 466.554 824.289 467.054 823.427 467.775C822.82 468.282 821.285 469.364 818.976 469.987C816.666 470.609 814.799 470.444 814.02 470.309C812.916 470.119 812.338 469.876 812.392 470.716C812.439 471.457 812.616 472.606 813.02 474.123C813.895 477.409 816.785 483.739 822.248 482.268C823.675 481.883 824.682 481.124 825.38 480.155L823.274 480.155L823.274 480.155ZM815.116 474.168L818.998 473.146C818.998 473.146 818.885 474.639 817.43 475.023C815.974 475.406 815.116 474.168 815.116 474.168Z" fill="#E4E4E7"/>
<path d="M837.884 469.357C836.875 469.534 834.454 469.755 831.462 468.953C828.47 468.151 826.484 466.75 825.697 466.091C824.582 465.157 824.092 464.507 823.609 465.489C823.182 466.355 822.636 467.765 822.108 469.738C820.963 474.011 820.108 483.028 827.184 484.925C834.259 486.821 838.026 478.584 839.171 474.311C839.699 472.338 839.931 470.844 839.994 469.881C840.067 468.79 839.318 469.106 837.884 469.357ZM823.666 472.893C823.666 472.893 824.782 471.158 826.673 471.696C828.566 472.233 828.712 474.326 828.712 474.326L823.666 472.893ZM828.283 480.676C824.956 479.701 824.443 477.048 824.443 477.048L833.381 479.547C833.381 479.547 831.577 481.638 828.283 480.676ZM831.443 475.224C831.443 475.224 832.557 473.49 834.448 474.029C836.339 474.568 836.488 476.66 836.488 476.66L831.443 475.224Z" fill="#D4D4D8"/>
<path d="M821.508 478.837L818.219 479.769C818.219 479.769 818.576 477.734 820.999 476.927L819.136 469.938L818.976 469.987C816.666 470.61 814.799 470.444 814.02 470.31C812.916 470.119 812.338 469.877 812.392 470.717C812.439 471.457 812.616 472.606 813.02 474.123C813.895 477.409 816.785 483.739 822.248 482.268L822.409 482.218L821.508 478.837ZM815.116 474.168L818.998 473.146C818.998 473.146 818.885 474.639 817.43 475.023C815.974 475.406 815.116 474.168 815.116 474.168Z" fill="#D4D4D8"/>
<path d="M828.434 480.712L828.283 480.676C824.956 479.701 824.443 477.048 824.443 477.048L829.052 478.336L831.492 468.961L831.462 468.953C828.469 468.151 826.484 466.75 825.697 466.091C824.582 465.157 824.091 464.507 823.608 465.489C823.182 466.355 822.636 467.765 822.108 469.738C820.963 474.011 820.108 483.028 827.184 484.925L827.329 484.958L828.434 480.712ZM823.666 472.893C823.666 472.893 824.782 471.158 826.673 471.696C828.566 472.233 828.712 474.326 828.712 474.326L823.666 472.893Z" fill="#A1A1AA"/>
<path d="M821.676 478.789L820.794 479.039C821.002 480.214 821.369 481.341 821.946 482.337C822.046 482.315 822.146 482.296 822.248 482.268C822.516 482.196 822.764 482.106 823.003 482.009C822.359 481.053 821.933 479.952 821.676 478.789ZM821.331 470.515C820.878 472.207 820.473 474.642 820.584 477.084C820.784 476.998 820.995 476.917 821.229 476.85L821.393 476.814C821.194 474.205 821.624 471.547 822.109 469.738C822.232 469.28 822.355 468.855 822.478 468.458C822.28 468.584 822.067 468.713 821.824 468.846C821.661 469.351 821.495 469.903 821.331 470.515Z" fill="#A1A1AA"/>
<path d="M555 451H603.563V499.552H555V451Z" fill="#FAFAFA"/>
<g clip-path="url(#clip0_1000_1725)">
<path fill-rule="evenodd" clip-rule="evenodd" d="M578.967 465C572.903 465 568 469.939 568 476.049C568 480.933 571.141 485.067 575.499 486.53C576.044 486.64 576.243 486.292 576.243 486C576.243 485.744 576.226 484.866 576.226 483.951C573.175 484.61 572.539 482.634 572.539 482.634C572.049 481.353 571.323 481.024 571.323 481.024C570.324 480.347 571.395 480.347 571.395 480.347C572.503 480.421 573.084 481.482 573.084 481.482C574.065 483.164 575.644 482.689 576.28 482.396C576.371 481.683 576.661 481.189 576.97 480.915C574.537 480.658 571.977 479.707 571.977 475.463C571.977 474.256 572.412 473.268 573.102 472.5C572.993 472.226 572.612 471.091 573.211 469.573C573.211 469.573 574.137 469.28 576.225 470.707C577.119 470.465 578.041 470.342 578.967 470.341C579.893 470.341 580.837 470.469 581.709 470.707C583.797 469.28 584.723 469.573 584.723 469.573C585.323 471.091 584.941 472.226 584.832 472.5C585.54 473.268 585.958 474.256 585.958 475.463C585.958 479.707 583.398 480.64 580.946 480.915C581.346 481.262 581.691 481.92 581.691 482.963C581.691 484.445 581.673 485.634 581.673 486C581.673 486.292 581.873 486.64 582.417 486.53C586.775 485.067 589.916 480.933 589.916 476.049C589.934 469.939 585.014 465 578.967 465Z" fill="#A1A1AA"/>
</g>
<path d="M653.602 549.6H702.164V598.151H653.602V549.6Z" fill="#FAFAFA"/>
<path d="M678 564L689 583.053L667 583.053L678 564Z" fill="#A1A1AA"/>
<path d="M259 302.917H307.563V351.469H259V302.917Z" fill="#FAFAFA"/>
<g clip-path="url(#clip1_1000_1725)">
<path d="M286.155 317L283.5 321.85L280.844 317L272 317L283.5 338L294.999 317L286.155 317Z" fill="#A1A1AA"/>
<path d="M286.154 317L283.498 321.85L280.843 317L276.599 317L283.498 329.6L290.398 317L286.154 317Z" fill="#D4D4D8"/>
</g>
<path d="M160.333 549.528H208.896V598.08H160.333V549.528Z" fill="#FAFAFA"/>
<path d="M357.667 500.206H406.229V548.758H357.667V500.206Z" fill="#FAFAFA"/>
<g clip-path="url(#clip2_1000_1725)">
<path d="M383.531 535.423C382.924 536.188 381.692 535.769 381.678 534.792L381.464 520.509L391.068 520.509C392.808 520.509 393.778 522.518 392.696 523.88L383.531 535.423Z" fill="url(#paint0_linear_1000_1725)"/>
<path d="M383.531 535.423C382.924 536.188 381.692 535.769 381.678 534.792L381.464 520.509L391.068 520.509C392.808 520.509 393.778 522.518 392.696 523.88L383.531 535.423Z" fill="url(#paint1_linear_1000_1725)" fill-opacity="0.2"/>
<path d="M379.624 512.44C380.232 511.675 381.463 512.094 381.478 513.071L381.572 527.354L372.088 527.354C370.348 527.354 369.378 525.345 370.46 523.982L379.624 512.44Z" fill="#AAAAB2"/>
</g>
<path d="M259 105.628H307.563V154.18H259V105.628Z" fill="#FAFAFA"/>
<path d="M752.333 154.18H800.896V202.731H752.333V154.18Z" fill="#FAFAFA"/>
<path d="M555 598.851H603.563V647.402H555V598.851Z" fill="#FAFAFA"/>
<path d="M949.667 302.917H998.229V351.469H949.667V302.917Z" fill="#FAFAFA"/>
<g clip-path="url(#clip3_1000_1725)">
<path d="M985.818 327.002C985.818 325.491 983.925 324.058 981.022 323.17C981.692 320.212 981.395 317.859 980.083 317.105C979.781 316.928 979.427 316.845 979.041 316.845V317.882C979.255 317.882 979.427 317.924 979.571 318.003C980.204 318.365 980.478 319.747 980.264 321.523C980.213 321.961 980.129 322.421 980.027 322.891C979.116 322.668 978.12 322.496 977.074 322.384C976.446 321.523 975.795 320.742 975.139 320.058C976.655 318.649 978.078 317.877 979.046 317.877V316.84C977.767 316.84 976.092 317.752 974.399 319.333C972.707 317.761 971.032 316.859 969.753 316.859V317.896C970.716 317.896 972.144 318.663 973.66 320.063C973.009 320.747 972.358 321.523 971.739 322.384C970.688 322.496 969.693 322.668 968.781 322.896C968.674 322.43 968.595 321.979 968.539 321.547C968.321 319.77 968.59 318.389 969.218 318.021C969.358 317.938 969.539 317.9 969.753 317.9V316.863C969.363 316.863 969.009 316.947 968.702 317.124C967.395 317.877 967.102 320.226 967.777 323.175C964.884 324.068 963 325.495 963 327.002C963 328.514 964.893 329.946 967.795 330.835C967.125 333.793 967.423 336.146 968.735 336.9C969.037 337.076 969.39 337.16 969.781 337.16C971.06 337.16 972.734 336.248 974.427 334.667C976.12 336.239 977.795 337.141 979.074 337.141C979.464 337.141 979.818 337.058 980.125 336.881C981.432 336.127 981.725 333.779 981.05 330.83C983.934 329.942 985.818 328.509 985.818 327.002ZM979.762 323.9C979.59 324.5 979.376 325.119 979.134 325.737C978.943 325.365 978.743 324.993 978.525 324.621C978.311 324.249 978.083 323.886 977.855 323.533C978.516 323.63 979.153 323.751 979.762 323.9ZM977.632 328.853C977.269 329.481 976.897 330.077 976.511 330.63C975.818 330.691 975.116 330.723 974.409 330.723C973.707 330.723 973.004 330.691 972.316 330.635C971.93 330.081 971.553 329.491 971.19 328.867C970.837 328.258 970.516 327.639 970.223 327.016C970.511 326.393 970.837 325.77 971.186 325.161C971.548 324.533 971.921 323.937 972.307 323.384C973 323.323 973.702 323.291 974.409 323.291C975.111 323.291 975.813 323.323 976.502 323.379C976.888 323.933 977.264 324.523 977.627 325.147C977.981 325.756 978.302 326.374 978.595 326.998C978.302 327.621 977.981 328.244 977.632 328.853ZM979.134 328.249C979.385 328.872 979.599 329.495 979.776 330.1C979.167 330.249 978.525 330.374 977.86 330.472C978.088 330.114 978.316 329.746 978.53 329.37C978.743 328.998 978.943 328.621 979.134 328.249ZM974.418 333.211C973.986 332.765 973.553 332.267 973.125 331.723C973.544 331.742 973.972 331.756 974.404 331.756C974.841 331.756 975.274 331.746 975.697 331.723C975.279 332.267 974.846 332.765 974.418 333.211ZM970.958 330.472C970.297 330.374 969.66 330.253 969.051 330.104C969.223 329.505 969.437 328.886 969.679 328.267C969.869 328.639 970.069 329.012 970.288 329.384C970.507 329.756 970.73 330.118 970.958 330.472ZM974.395 320.793C974.827 321.24 975.26 321.737 975.688 322.282C975.269 322.263 974.841 322.249 974.409 322.249C973.972 322.249 973.539 322.258 973.116 322.282C973.534 321.737 973.967 321.24 974.395 320.793ZM970.953 323.533C970.725 323.891 970.497 324.258 970.283 324.635C970.069 325.007 969.869 325.379 969.679 325.751C969.428 325.128 969.214 324.505 969.037 323.9C969.646 323.756 970.288 323.63 970.953 323.533ZM966.744 329.356C965.098 328.653 964.033 327.733 964.033 327.002C964.033 326.272 965.098 325.347 966.744 324.649C967.144 324.477 967.581 324.323 968.032 324.179C968.297 325.091 968.646 326.04 969.079 327.012C968.651 327.979 968.307 328.923 968.046 329.83C967.586 329.686 967.149 329.528 966.744 329.356ZM969.246 336.002C968.614 335.639 968.339 334.258 968.553 332.481C968.604 332.044 968.688 331.584 968.79 331.114C969.702 331.337 970.697 331.509 971.744 331.621C972.372 332.481 973.023 333.262 973.679 333.946C972.162 335.355 970.739 336.127 969.772 336.127C969.563 336.123 969.386 336.081 969.246 336.002ZM980.278 332.458C980.497 334.235 980.227 335.616 979.599 335.983C979.46 336.067 979.278 336.104 979.064 336.104C978.102 336.104 976.674 335.337 975.158 333.937C975.809 333.253 976.46 332.476 977.078 331.616C978.13 331.504 979.125 331.332 980.036 331.104C980.143 331.574 980.227 332.025 980.278 332.458ZM982.069 329.356C981.669 329.528 981.232 329.681 980.781 329.825C980.516 328.914 980.167 327.965 979.734 326.993C980.162 326.026 980.506 325.081 980.767 324.175C981.227 324.319 981.664 324.477 982.074 324.649C983.72 325.351 984.785 326.272 984.785 327.002C984.78 327.733 983.715 328.658 982.069 329.356Z" fill="#A1A1AA"/>
<path d="M974.404 329.128C975.578 329.128 976.529 328.176 976.529 327.002C976.529 325.828 975.578 324.877 974.404 324.877C973.23 324.877 972.278 325.828 972.278 327.002C972.278 328.176 973.23 329.128 974.404 329.128Z" fill="#A1A1AA"/>
</g>
<path d="M900.333 352.239H948.896V400.791H900.333V352.239Z" fill="#FAFAFA"/>
<path d="M604.333 105.628H652.896V154.18H604.333V105.628Z" fill="#FAFAFA"/>
<path d="M160.333 204.272H208.896V252.824H160.333V204.272Z" fill="#FAFAFA"/>
<path d="M209.667 401.562H258.229V450.113H209.667V401.562Z" fill="#FAFAFA"/>
<path fill-rule="evenodd" clip-rule="evenodd" d="M234 419C230.8 419 228.8 420.591 228 423.772C229.2 422.181 230.6 421.585 232.2 421.982C233.113 422.209 233.766 422.867 234.487 423.596C235.664 424.783 237.026 426.157 240 426.157C243.2 426.157 245.2 424.566 246 421.386C244.8 422.976 243.4 423.573 241.8 423.175C240.887 422.948 240.234 422.29 239.512 421.561C238.336 420.373 236.974 419 234 419ZM228 426.157C224.8 426.157 222.8 427.747 222 430.928C223.2 429.338 224.6 428.741 226.2 429.139C227.113 429.366 227.766 430.024 228.488 430.753C229.664 431.94 231.026 433.314 234 433.314C237.2 433.314 239.2 431.724 240 428.543C238.8 430.133 237.4 430.729 235.8 430.332C234.887 430.105 234.234 429.446 233.513 428.718C232.336 427.531 230.974 426.157 228 426.157Z" fill="#A1A1AA"/>
<path d="M111 302.917H159.563V351.469H111V302.917Z" fill="#FAFAFA"/>
<path d="M653.667 -42.3389H702.229V6.21273H653.667V-42.3389Z" fill="#FAFAFA"/>
<path d="M407 204.272H455.563V252.824H407V204.272Z" fill="#FAFAFA"/>
<path d="M703 302.917H751.563V351.469H703V302.917Z" fill="#FAFAFA"/>
<defs>
<linearGradient id="paint0_linear_1000_1725" x1="381.464" y1="523.676" x2="390" y2="527.256" gradientUnits="userSpaceOnUse">
<stop stop-color="#AAAAB2"/>
<stop offset="1" stop-color="#E6E6E6"/>
</linearGradient>
<linearGradient id="paint1_linear_1000_1725" x1="377.68" y1="518.494" x2="381.572" y2="525.822" gradientUnits="userSpaceOnUse">
<stop/>
<stop offset="1" stop-opacity="0"/>
</linearGradient>
<clipPath id="clip0_1000_1725">
<rect width="22" height="21.551" fill="white" transform="translate(568 465)"/>
</clipPath>
<clipPath id="clip1_1000_1725">
<rect width="23" height="21" fill="white" transform="translate(272 317)"/>
</clipPath>
<clipPath id="clip2_1000_1725">
<rect width="23.1504" height="24" fill="white" transform="translate(370 512)"/>
</clipPath>
<clipPath id="clip3_1000_1725">
<rect width="22.8176" height="26" fill="white" transform="translate(963 314)"/>
</clipPath>
</defs>
</svg>
