<svg width="873" height="739" viewBox="0 0 873 739" fill="none" xmlns="http://www.w3.org/2000/svg">
<g opacity="0.1">
<g filter="url(#filter0_f_992_1578)">
<path d="M512.472 198.537C586.313 320.053 899.133 308.764 804.656 366.175C710.178 423.586 493.879 410.125 420.038 288.609C346.197 167.093 90.9331 191.949 185.411 134.538C279.888 77.1271 438.631 77.0217 512.472 198.537Z" fill="#22C55E"/>
</g>
<g filter="url(#filter1_f_992_1578)">
<path d="M398.263 343.448C472.104 464.964 784.924 453.675 690.447 511.086C595.969 568.497 379.67 555.036 305.829 433.52C231.988 312.005 -23.2759 336.86 71.2017 279.449C165.679 222.038 324.422 221.933 398.263 343.448Z" fill="#3B82F6"/>
</g>
</g>
<defs>
<filter id="filter0_f_992_1578" x="114.704" y="47.2531" width="757.568" height="401.657" filterUnits="userSpaceOnUse" color-interpolation-filters="sRGB">
<feFlood flood-opacity="0" result="BackgroundImageFix"/>
<feBlend mode="normal" in="SourceGraphic" in2="BackgroundImageFix" result="shape"/>
<feGaussianBlur stdDeviation="25" result="effect1_foregroundBlur_992_1578"/>
</filter>
<filter id="filter1_f_992_1578" x="0.495117" y="192.164" width="757.568" height="401.657" filterUnits="userSpaceOnUse" color-interpolation-filters="sRGB">
<feFlood flood-opacity="0" result="BackgroundImageFix"/>
<feBlend mode="normal" in="SourceGraphic" in2="BackgroundImageFix" result="shape"/>
<feGaussianBlur stdDeviation="25" result="effect1_foregroundBlur_992_1578"/>
</filter>
</defs>
</svg>
