<svg width="1709" height="312" viewBox="0 0 1709 312" fill="none" xmlns="http://www.w3.org/2000/svg">
<path d="M626.3 99.5C601.5 99.5 577.5 111.7 569.8 136.1C561 109.2 540.8 99.5 517.9 99.5C495.9 99.5 473.9 110.8 465.6 132.4V102.5H421.1H421H391.2V132.4H421V266.3H465.9V175.2C465.9 154.5 478.1 136.1 500.1 136.1C520.2 136.1 529.1 149.5 529.1 177V266.2H574V175.1C574 154.4 586.5 136 608.2 136C628.7 136 637.2 149.4 637.2 176.9V266.1H682.1V167.2C682.2 118.1 657.7 99.5 626.3 99.5Z" fill="#fff"/>
<path d="M783.3 99.5C734.8 99.5 703.3 132.7 703.3 185.6C703.3 235.6 733.5 269 784.8 269C826.1 269 856.3 247.3 860.6 214.3H818.2C814.8 226.8 802 235 784.9 235C762.3 235 747.4 220.3 747.6 194.4H861.5C867 140.1 840.1 99.5 783.3 99.5ZM747.9 165.7C749.7 145.9 762.8 133.4 783.3 133.4C802 133.4 816.3 144.1 817.5 165.7H747.9Z" fill="#fff"/>
<path d="M983.6 99.5C960.5 99.5 936.6 110.8 927.8 132.4V102.5H884.7V266.2H929.6V175.1C929.6 154.4 942.5 136 965.7 136C987.3 136 996.5 149.4 996.5 176.9V266.1H1041.4V167.2C1041.4 118.1 1016.3 99.5 983.6 99.5Z" fill="#fff"/>
<path d="M1278.4 99.5C1255.2 99.5 1233.3 110.5 1224.4 132.1H1224.3V43.5L1179.4 52.5V229.8H1137.8C1129.3 229.8 1124.8 227.4 1124.8 217.6V132.5H1130.4H1157.7V102.5H1124.7V63.4L1080.1 72.3V102.4H1050.7V132.5H1080.1V226.1C1080.1 250.9 1088.6 266.1 1121.9 266.1H1179.3H1193.7H1224.3V175C1224.3 154.3 1237.1 135.9 1260.3 135.9C1282 135.9 1291.1 149.3 1291.1 176.8V266H1336V167.1C1336.2 118.1 1311.1 99.5 1278.4 99.5Z" fill="#fff"/>
<path d="M1439.4 99.5C1387.5 99.5 1357.3 133.7 1357.3 184.4C1357.3 237.6 1390.3 269 1439.4 269C1491.1 269 1521.3 235 1521.3 184.4C1521.2 131.2 1488.3 99.5 1439.4 99.5ZM1439.1 232.6C1416.8 232.6 1402.4 216.7 1402.4 184.3C1402.4 151.6 1417.1 136 1439.4 136C1461.7 136 1475.8 151.9 1475.8 184.3C1475.8 217.1 1461.1 232.6 1439.1 232.6Z" fill="#fff"/>
<path d="M1584.3 132.4L1584.5 102.5H1543.8V266.2H1588.7V180.7C1589.3 156.2 1601.8 142.5 1632.1 142.5H1642.2V100.3H1633C1612.3 100.4 1591.7 111.3 1584.3 132.4Z" fill="#fff"/>
<path d="M1708.7 223.7H1666.5V265.9H1708.7V223.7Z" fill="#18181B"/>
<path d="M154.1 311.4L179.8 266.9H333.9L308.2 311.4H154.1Z" fill="#18181B"/>
<path d="M128.4 266.9H25.6001L102.7 133.5H205.5L179.8 177.9H128.4L102.7 222.4L128.4 266.9Z" fill="#18181B"/>
<path d="M256.8 133.5H308.2L256.8 222.4H205.5L256.8 133.5Z" fill="#18181B"/>
<path d="M308.2 133.5L231.1 0H179.8L256.8 133.5H308.2Z" fill="#D4D4D8"/>
<path d="M205.5 133.5L179.8 89H77L102.7 133.5H205.5Z" fill="#D4D4D8"/>
<path d="M179.8 177.9L205.5 222.4H256.8L282.5 177.9L333.9 266.9H179.8L128.4 177.9H179.8Z" fill="#D4D4D8"/>
<path d="M179.8 0L128.4 89H179.8L205.5 133.5L179.8 177.9L205.5 222.4L256.8 133.5L179.8 0Z" fill="#52525B"/>
<path d="M77 89L102.7 133.5L25.6 266.9L0 222.4L77 89Z" fill="#52525B"/>
<path d="M128.4 177.9L102.7 222.4L154.1 311.4L179.8 266.9L128.4 177.9Z" fill="#52525B"/>
</svg>
