<svg width="334" height="312" viewBox="0 0 334 312" fill="none" xmlns="http://www.w3.org/2000/svg">
<path d="M154.1 311.4L179.8 266.9H333.9L308.2 311.4H154.1Z" fill="#18181B"/>
<path d="M128.4 266.9H25.6001L102.7 133.5H205.5L179.8 177.9H128.4L102.7 222.4L128.4 266.9Z" fill="#18181B"/>
<path d="M256.8 133.5H308.2L256.8 222.4H205.5L256.8 133.5Z" fill="#18181B"/>
<path d="M308.2 133.5L231.1 0H179.8L256.8 133.5H308.2Z" fill="#D4D4D8"/>
<path d="M205.5 133.5L179.8 89H77L102.7 133.5H205.5Z" fill="#D4D4D8"/>
<path d="M179.8 177.9L205.5 222.4H256.8L282.5 177.9L333.9 266.9H179.8L128.4 177.9H179.8Z" fill="#D4D4D8"/>
<path d="M179.8 0L128.4 89H179.8L205.5 133.5L179.8 177.9L205.5 222.4L256.8 133.5L179.8 0Z" fill="#52525B"/>
<path d="M77 89L102.7 133.5L25.6 266.9L0 222.4L77 89Z" fill="#52525B"/>
<path d="M128.4 177.9L102.7 222.4L154.1 311.4L179.8 266.9L128.4 177.9Z" fill="#52525B"/>
</svg>
