<svg width="873" height="665" viewBox="0 0 873 665" fill="none" xmlns="http://www.w3.org/2000/svg">
<g opacity="0.1">
<g filter="url(#filter0_f_64_728)">
<path d="M512.471 124.537C586.313 246.053 899.133 234.764 804.655 292.175C710.178 349.586 493.879 336.125 420.037 214.609C346.196 93.0935 90.9326 117.949 185.41 60.5382C279.888 3.1271 438.63 3.02168 512.471 124.537Z" fill="#3B82F6"/>
</g>
<g filter="url(#filter1_f_64_728)">
<path d="M398.263 269.448C472.104 390.964 784.924 379.675 690.447 437.086C595.969 494.497 379.67 481.036 305.829 359.52C231.988 238.005 -23.2759 262.86 71.2017 205.449C165.679 148.038 324.422 147.933 398.263 269.448Z" fill="#EC4899"/>
</g>
</g>
<defs>
<filter id="filter0_f_64_728" x="114.704" y="-26.7469" width="757.568" height="401.657" filterUnits="userSpaceOnUse" color-interpolation-filters="sRGB">
<feFlood flood-opacity="0" result="BackgroundImageFix"/>
<feBlend mode="normal" in="SourceGraphic" in2="BackgroundImageFix" result="shape"/>
<feGaussianBlur stdDeviation="25" result="effect1_foregroundBlur_64_728"/>
</filter>
<filter id="filter1_f_64_728" x="0.495117" y="118.164" width="757.568" height="401.657" filterUnits="userSpaceOnUse" color-interpolation-filters="sRGB">
<feFlood flood-opacity="0" result="BackgroundImageFix"/>
<feBlend mode="normal" in="SourceGraphic" in2="BackgroundImageFix" result="shape"/>
<feGaussianBlur stdDeviation="25" result="effect1_foregroundBlur_64_728"/>
</filter>
</defs>
</svg>
