<svg width="111" height="30" viewBox="0 0 111 30" fill="none" xmlns="http://www.w3.org/2000/svg">
<path d="M12.4479 0.991943L24.8959 7.99528V22.002L12.4479 29.0053L0 22.002V7.99528L12.4479 0.991943Z" fill="#38393A"/>
<path d="M12.4584 0.991943L20.5495 14.9986H4.36719L12.4584 0.991943Z" fill="#B5B5B5"/>
<path d="M12.457 0.991943L24.9142 7.99528L20.5494 14.9986L12.457 0.991943Z" fill="#8F8F8F"/>
<path d="M12.4538 0.991943L4.36628 14.9986L0.00146484 7.99528L12.4538 0.991943Z" fill="#CDCDCD"/>
<path d="M20.5288 15.0013L24.8936 22.0047L12.457 29.008L20.5288 15.0013Z" fill="#5C5C5C"/>
<path d="M0.000488281 22.0042L4.3653 15.0009L12.4577 29.0076L0.000488281 22.0042Z" fill="#B0B0B0"/>
<path d="M12.4574 29.0069L4.36621 15.0002H20.5485L12.4574 29.0069Z" fill="#9B9B9B"/>
<path d="M4.36628 15.0026L0.00146484 22.006L0.00147184 7.99927L4.36628 15.0026Z" fill="#E0E0E0"/>
<path d="M34.9048 8.90909H38.8232L42.147 17.0142H42.3004L45.6243 8.90909H49.5426V22H46.4616V13.9588H46.353L43.2081 21.9169H41.2393L38.0945 13.9141H37.9858V22H34.9048V8.90909ZM56.1056 22.1854C55.0787 22.1854 54.1923 21.983 53.4466 21.5781C52.7051 21.169 52.1341 20.5874 51.7335 19.8331C51.3372 19.0746 51.139 18.1733 51.139 17.1293C51.139 16.1151 51.3393 15.2287 51.7399 14.4702C52.1404 13.7074 52.7051 13.1151 53.4338 12.6932C54.1625 12.267 55.0211 12.054 56.0098 12.054C56.7086 12.054 57.3478 12.1626 57.9274 12.38C58.5069 12.5973 59.0076 12.919 59.4295 13.3452C59.8514 13.7713 60.1795 14.2976 60.4139 14.924C60.6483 15.5462 60.7654 16.2599 60.7654 17.0653V17.8452H52.2321V16.0298H57.8571C57.8528 15.6974 57.774 15.4013 57.6206 15.1413C57.4672 14.8814 57.2562 14.679 56.9877 14.5341C56.7235 14.3849 56.4189 14.3104 56.0737 14.3104C55.7243 14.3104 55.411 14.3892 55.1341 14.5469C54.8571 14.7003 54.6376 14.9112 54.4757 15.1797C54.3137 15.4439 54.2285 15.7443 54.22 16.081V17.9283C54.22 18.3288 54.2988 18.6804 54.4565 18.983C54.6142 19.2812 54.8379 19.5135 55.1277 19.6797C55.4174 19.8459 55.7626 19.929 56.1632 19.929C56.4402 19.929 56.6916 19.8906 56.9174 19.8139C57.1433 19.7372 57.3372 19.6243 57.4991 19.4751C57.661 19.326 57.7825 19.1428 57.8635 18.9254L60.7335 19.0085C60.6142 19.652 60.3521 20.2124 59.9473 20.6896C59.5467 21.1626 59.0204 21.5312 58.3684 21.7955C57.7164 22.0554 56.9622 22.1854 56.1056 22.1854ZM65.4876 16.4006V22H62.3619V12.1818H65.3342V13.9844H65.4428C65.6602 13.3835 66.0309 12.9126 66.555 12.5717C67.0792 12.2266 67.7035 12.054 68.4279 12.054C69.1183 12.054 69.717 12.2095 70.2241 12.5206C70.7354 12.8274 71.1317 13.2578 71.413 13.8118C71.6985 14.3615 71.8391 15.005 71.8349 15.7422V22H68.7092V16.3558C68.7134 15.8104 68.5749 15.3842 68.2937 15.0774C68.0167 14.7706 67.631 14.6172 67.1367 14.6172C66.8086 14.6172 66.5188 14.6896 66.2674 14.8345C66.0202 14.9751 65.8285 15.1776 65.6921 15.4418C65.56 15.706 65.4918 16.0256 65.4876 16.4006ZM79.312 12.1818V14.483H73.1181V12.1818H79.312ZM74.4157 9.82955H77.5414V18.9126C77.5414 19.1044 77.5712 19.2599 77.6309 19.3793C77.6948 19.4943 77.7864 19.5774 77.9057 19.6286C78.025 19.6754 78.1678 19.6989 78.334 19.6989C78.4533 19.6989 78.579 19.6882 78.7111 19.6669C78.8475 19.6413 78.9498 19.62 79.0179 19.603L79.4909 21.8594C79.3418 21.902 79.1309 21.9553 78.8581 22.0192C78.5897 22.0831 78.2679 22.1236 77.8929 22.1406C77.16 22.1747 76.5314 22.0895 76.0073 21.8849C75.4874 21.6761 75.089 21.3523 74.812 20.9134C74.5392 20.4744 74.4071 19.9226 74.4157 19.2578V9.82955ZM84.2434 16.4006V22H81.1177V8.90909H84.1412V13.9844H84.2498C84.4714 13.3793 84.8336 12.9062 85.3365 12.5653C85.8436 12.2244 86.4636 12.054 87.1966 12.054C87.8869 12.054 88.4877 12.2074 88.9991 12.5142C89.5105 12.8168 89.9068 13.245 90.188 13.799C90.4735 14.353 90.6142 15.0007 90.6099 15.7422V22H87.4842V16.3558C87.4885 15.8104 87.3521 15.3842 87.0751 15.0774C86.7981 14.7706 86.4082 14.6172 85.9054 14.6172C85.5772 14.6172 85.2875 14.6896 85.036 14.8345C84.7889 14.9751 84.595 15.1776 84.4544 15.4418C84.318 15.706 84.2477 16.0256 84.2434 16.4006ZM97.1442 22.1854C96.1129 22.1854 95.2266 21.9744 94.4851 21.5526C93.7479 21.1264 93.179 20.5341 92.7784 19.7756C92.3821 19.0128 92.1839 18.1286 92.1839 17.1229C92.1839 16.1129 92.3821 15.2287 92.7784 14.4702C93.179 13.7074 93.7479 13.1151 94.4851 12.6932C95.2266 12.267 96.1129 12.054 97.1442 12.054C98.1754 12.054 99.0597 12.267 99.7969 12.6932C100.538 13.1151 101.107 13.7074 101.504 14.4702C101.904 15.2287 102.104 16.1129 102.104 17.1229C102.104 18.1286 101.904 19.0128 101.504 19.7756C101.107 20.5341 100.538 21.1264 99.7969 21.5526C99.0597 21.9744 98.1754 22.1854 97.1442 22.1854ZM97.1634 19.8267C97.5384 19.8267 97.8558 19.7116 98.1158 19.4815C98.3757 19.2514 98.5739 18.9318 98.7102 18.5227C98.8509 18.1136 98.9212 17.6406 98.9212 17.1037C98.9212 16.5582 98.8509 16.081 98.7102 15.6719C98.5739 15.2628 98.3757 14.9432 98.1158 14.7131C97.8558 14.483 97.5384 14.3679 97.1634 14.3679C96.7756 14.3679 96.4474 14.483 96.179 14.7131C95.9148 14.9432 95.7124 15.2628 95.5717 15.6719C95.4354 16.081 95.3672 16.5582 95.3672 17.1037C95.3672 17.6406 95.4354 18.1136 95.5717 18.5227C95.7124 18.9318 95.9148 19.2514 96.179 19.4815C96.4474 19.7116 96.7756 19.8267 97.1634 19.8267ZM103.706 22V12.1818H106.742V13.9716H106.844C107.023 13.3239 107.315 12.8423 107.72 12.527C108.125 12.2074 108.596 12.0476 109.132 12.0476C109.277 12.0476 109.426 12.0582 109.58 12.0795C109.733 12.0966 109.876 12.1243 110.008 12.1626V14.8793C109.859 14.8281 109.663 14.7876 109.42 14.7578C109.181 14.728 108.968 14.7131 108.781 14.7131C108.41 14.7131 108.076 14.7962 107.777 14.9624C107.483 15.1243 107.251 15.3523 107.081 15.6463C106.914 15.9361 106.831 16.277 106.831 16.669V22H103.706Z" fill="#0F172A"/>
</svg>
