<svg width="1314" height="651" viewBox="0 0 1314 651" fill="none" xmlns="http://www.w3.org/2000/svg">
<g opacity="0.7">
<path d="M-73 96.032L-14.6 120.56L43.8 96.032L102.2 120.56L160.6 96.032L219 120.56L277.394 96.032L335.794 120.56L394.194 96.032L452.594 120.56L510.994 96.032L569.394 120.56L627.794 96.032L686.2 120.56" stroke="#E4E4E7" stroke-miterlimit="10"/>
<path d="M-73 489.064L-14.6 513.592L43.8 489.064L102.2 513.592L160.6 489.064L219 513.592L277.394 489.064L335.794 513.592L394.194 489.064L452.594 513.592L510.994 489.064L569.394 513.592L627.794 489.064L686.2 513.592" stroke="#E4E4E7" stroke-miterlimit="10"/>
<path d="M-73 292.548L-14.6 317.076L43.8 292.548L102.2 317.076L160.6 292.548L219 317.076L277.394 292.548L335.794 317.076L394.194 292.548L452.594 317.076L510.994 292.548L569.394 317.076L627.794 292.548L686.2 317.076" stroke="#E4E4E7" stroke-miterlimit="10"/>
<path d="M-73 194.29L-14.6 218.818L43.8 194.29L102.2 218.818L160.6 194.29L219 218.818L277.394 194.29L335.794 218.818L394.194 194.29L452.594 218.818L510.994 194.29L569.394 218.818L627.794 194.29L686.2 218.818" stroke="#E4E4E7" stroke-miterlimit="10"/>
<path d="M-73 587.322L-14.6 611.85L43.8 587.322L102.2 611.85L160.6 587.322L219 611.85L277.394 587.322L335.794 611.85L394.194 587.322L452.594 611.85L510.994 587.322L569.394 611.85L627.794 587.322L686.2 611.85" stroke="#E4E4E7" stroke-miterlimit="10"/>
<path d="M-73 -2.22595L-14.6 22.302L43.8 -2.22595L102.2 22.302L160.6 -2.22595L219 22.302L277.394 -2.22595L335.794 22.302L394.194 -2.22595L452.594 22.302L510.994 -2.22595L569.394 22.302L627.794 -2.22595L686.2 22.302" stroke="#E4E4E7" stroke-miterlimit="10"/>
<path d="M-73 390.806L-14.6 415.334L43.8 390.806L102.2 415.334L160.6 390.806L219 415.334L277.394 390.806L335.794 415.334L394.194 390.806L452.594 415.334L510.994 390.806L569.394 415.334L627.794 390.806L686.2 415.334" stroke="#E4E4E7" stroke-miterlimit="10"/>
<path d="M-73 145.088L-14.6 169.616L43.8 145.088L102.2 169.616L160.6 145.088L219 169.616L277.394 145.088L335.794 169.616L394.194 145.088L452.594 169.616L510.994 145.088L569.394 169.616L627.794 145.088L686.2 169.616" stroke="#E4E4E7" stroke-miterlimit="10"/>
<path d="M-73 538.12L-14.6 562.648L43.8 538.12L102.2 562.648L160.6 538.12L219 562.648L277.394 538.12L335.794 562.648L394.194 538.12L452.594 562.648L510.994 538.12L569.394 562.648L627.794 538.12L686.2 562.648" stroke="#E4E4E7" stroke-miterlimit="10"/>
<path d="M-73 341.604L-14.6 366.132L43.8 341.604L102.2 366.132L160.6 341.604L219 366.132L277.394 341.604L335.794 366.132L394.194 341.604L452.594 366.132L510.994 341.604L569.394 366.132L627.794 341.604L686.2 366.132" stroke="#E4E4E7" stroke-miterlimit="10"/>
<path d="M-73 243.346L-14.6 267.874L43.8 243.346L102.2 267.874L160.6 243.346L219 267.874L277.394 243.346L335.794 267.874L394.194 243.346L452.594 267.874L510.994 243.346L569.394 267.874L627.794 243.346L686.2 267.874" stroke="#E4E4E7" stroke-miterlimit="10"/>
<path d="M-73 636.378L-14.6 660.906L43.8 636.378L102.2 660.906L160.6 636.378L219 660.906L277.394 636.378L335.794 660.906L394.194 636.378L452.594 660.906L510.994 636.378L569.394 660.906L627.794 636.378L686.2 660.906" stroke="#E4E4E7" stroke-miterlimit="10"/>
<path d="M-73 46.83L-14.6 71.358L43.8 46.83L102.2 71.358L160.6 46.83L219 71.358L277.394 46.83L335.794 71.358L394.194 46.83L452.594 71.358L510.994 46.83L569.394 71.358L627.794 46.83L686.2 71.358" stroke="#E4E4E7" stroke-miterlimit="10"/>
<path d="M-73 439.862L-14.6 464.39L43.8 439.862L102.2 464.39L160.6 439.862L219 464.39L277.394 439.862L335.794 464.39L394.194 439.862L452.594 464.39L510.994 439.862L569.394 464.39L627.794 439.862L686.2 464.39" stroke="#E4E4E7" stroke-miterlimit="10"/>
<path d="M686.054 120.56L744.454 96.032L802.854 120.56L861.254 96.032L919.654 120.56L978.048 96.032L1036.45 120.56L1094.85 96.032L1153.25 120.56L1211.65 96.032L1270.05 120.56L1328.45 96.032L1386.85 120.56" stroke="#E4E4E7" stroke-miterlimit="10"/>
<path d="M686.054 513.592L744.454 489.064L802.854 513.592L861.254 489.064L919.654 513.592L978.048 489.064L1036.45 513.592L1094.85 489.064L1153.25 513.592L1211.65 489.064L1270.05 513.592L1328.45 489.064L1386.85 513.592" stroke="#E4E4E7" stroke-miterlimit="10"/>
<path d="M686.054 317.076L744.454 292.548L802.854 317.076L861.254 292.548L919.654 317.076L978.048 292.548L1036.45 317.076L1094.85 292.548L1153.25 317.076L1211.65 292.548L1270.05 317.076L1328.45 292.548L1386.85 317.076" stroke="#E4E4E7" stroke-miterlimit="10"/>
<path d="M686.054 218.818L744.454 194.29L802.854 218.818L861.254 194.29L919.654 218.818L978.048 194.29L1036.45 218.818L1094.85 194.29L1153.25 218.818L1211.65 194.29L1270.05 218.818L1328.45 194.29L1386.85 218.818" stroke="#E4E4E7" stroke-miterlimit="10"/>
<path d="M686.054 611.85L744.454 587.322L802.854 611.85L861.254 587.322L919.654 611.85L978.048 587.322L1036.45 611.85L1094.85 587.322L1153.25 611.85L1211.65 587.322L1270.05 611.85L1328.45 587.322L1386.85 611.85" stroke="#E4E4E7" stroke-miterlimit="10"/>
<path d="M686.054 22.302L744.454 -2.22595L802.854 22.302L861.254 -2.22595L919.654 22.302L978.048 -2.22595L1036.45 22.302L1094.85 -2.22595L1153.25 22.302L1211.65 -2.22595L1270.05 22.302L1328.45 -2.22595L1386.85 22.302" stroke="#E4E4E7" stroke-miterlimit="10"/>
<path d="M686.054 415.334L744.454 390.806L802.854 415.334L861.254 390.806L919.654 415.334L978.048 390.806L1036.45 415.334L1094.85 390.806L1153.25 415.334L1211.65 390.806L1270.05 415.334L1328.45 390.806L1386.85 415.334" stroke="#E4E4E7" stroke-miterlimit="10"/>
<path d="M686.2 169.616L744.6 145.088L803 169.616L861.4 145.088L919.8 169.616L978.194 145.088L1036.59 169.616L1094.99 145.088L1153.39 169.616L1211.79 145.088L1270.19 169.616L1328.59 145.088L1387 169.616" stroke="#E4E4E7" stroke-miterlimit="10"/>
<path d="M686.2 562.648L744.6 538.12L803 562.648L861.4 538.12L919.8 562.648L978.194 538.12L1036.59 562.648L1094.99 538.12L1153.39 562.648L1211.79 538.12L1270.19 562.648L1328.59 538.12L1387 562.648" stroke="#E4E4E7" stroke-miterlimit="10"/>
<path d="M686.2 366.132L744.6 341.604L803 366.132L861.4 341.604L919.8 366.132L978.194 341.604L1036.59 366.132L1094.99 341.604L1153.39 366.132L1211.79 341.604L1270.19 366.132L1328.59 341.604L1387 366.132" stroke="#E4E4E7" stroke-miterlimit="10"/>
<path d="M686.2 267.874L744.6 243.346L803 267.874L861.4 243.346L919.8 267.874L978.194 243.346L1036.59 267.874L1094.99 243.346L1153.39 267.874L1211.79 243.346L1270.19 267.874L1328.59 243.346L1387 267.874" stroke="#E4E4E7" stroke-miterlimit="10"/>
<path d="M686.2 660.906L744.6 636.378L803 660.906L861.4 636.378L919.8 660.906L978.194 636.378L1036.59 660.906L1094.99 636.378L1153.39 660.906L1211.79 636.378L1270.19 660.906L1328.59 636.378L1387 660.906" stroke="#E4E4E7" stroke-miterlimit="10"/>
<path d="M686.2 71.358L744.6 46.83L803 71.358L861.4 46.83L919.8 71.358L978.194 46.83L1036.59 71.358L1094.99 46.83L1153.39 71.358L1211.79 46.83L1270.19 71.358L1328.59 46.83L1387 71.358" stroke="#E4E4E7" stroke-miterlimit="10"/>
<path d="M686.2 464.39L744.6 439.862L803 464.39L861.4 439.862L919.8 464.39L978.194 439.862L1036.59 464.39L1094.99 439.862L1153.39 464.39L1211.79 439.862L1270.19 464.39L1328.59 439.862L1387 464.39" stroke="#E4E4E7" stroke-miterlimit="10"/>
<path d="M-73 145.088L-14.6 120.56L43.8 145.088L102.2 120.56L160.6 145.088L219 120.56L277.394 145.088L335.794 120.56L394.194 145.088L452.594 120.56L510.994 145.088L569.394 120.56L627.794 145.088L686.2 120.56" stroke="#E4E4E7" stroke-miterlimit="10"/>
<path d="M-73 538.12L-14.6 513.592L43.8 538.12L102.2 513.592L160.6 538.12L219 513.592L277.394 538.12L335.794 513.592L394.194 538.12L452.594 513.592L510.994 538.12L569.394 513.592L627.794 538.12L686.2 513.592" stroke="#E4E4E7" stroke-miterlimit="10"/>
<path d="M-73 341.604L-14.6 317.076L43.8 341.604L102.2 317.076L160.6 341.604L219 317.076L277.394 341.604L335.794 317.076L394.194 341.604L452.594 317.076L510.994 341.604L569.394 317.076L627.794 341.604L686.2 317.076" stroke="#E4E4E7" stroke-miterlimit="10"/>
<path d="M-73 243.346L-14.6 218.818L43.8 243.346L102.2 218.818L160.6 243.346L219 218.818L277.394 243.346L335.794 218.818L394.194 243.346L452.594 218.818L510.994 243.346L569.394 218.818L627.794 243.346L686.2 218.818" stroke="#E4E4E7" stroke-miterlimit="10"/>
<path d="M-73 636.378L-14.6 611.85L43.8 636.378L102.2 611.85L160.6 636.378L219 611.85L277.394 636.378L335.794 611.85L394.194 636.378L452.594 611.85L510.994 636.378L569.394 611.85L627.794 636.378L686.2 611.85" stroke="#E4E4E7" stroke-miterlimit="10"/>
<path d="M-73 46.83L-14.6 22.302L43.8 46.83L102.2 22.302L160.6 46.83L219 22.302L277.394 46.83L335.794 22.302L394.194 46.83L452.594 22.302L510.994 46.83L569.394 22.302L627.794 46.83L686.2 22.302" stroke="#E4E4E7" stroke-miterlimit="10"/>
<path d="M-73 439.862L-14.6 415.334L43.8 439.862L102.2 415.334L160.6 439.862L219 415.334L277.394 439.862L335.794 415.334L394.194 439.862L452.594 415.334L510.994 439.862L569.394 415.334L627.794 439.862L686.2 415.334" stroke="#E4E4E7" stroke-miterlimit="10"/>
<path d="M-73 194.144L-14.6 169.616L43.8 194.144L102.2 169.616L160.6 194.144L219 169.616L277.394 194.144L335.794 169.616L394.194 194.144L452.594 169.616L510.994 194.144L569.394 169.616L627.794 194.144L686.2 169.616" stroke="#E4E4E7" stroke-miterlimit="10"/>
<path d="M-73 587.176L-14.6 562.648L43.8 587.176L102.2 562.648L160.6 587.176L219 562.648L277.394 587.176L335.794 562.648L394.194 587.176L452.594 562.648L510.994 587.176L569.394 562.648L627.794 587.176L686.2 562.648" stroke="#E4E4E7" stroke-miterlimit="10"/>
<path d="M-73 390.66L-14.6 366.132L43.8 390.66L102.2 366.132L160.6 390.66L219 366.132L277.394 390.66L335.794 366.132L394.194 390.66L452.594 366.132L510.994 390.66L569.394 366.132L627.794 390.66L686.2 366.132" stroke="#E4E4E7" stroke-miterlimit="10"/>
<path d="M-73 292.402L-14.6 267.874L43.8 292.402L102.2 267.874L160.6 292.402L219 267.874L277.394 292.402L335.794 267.874L394.194 292.402L452.594 267.874L510.994 292.402L569.394 267.874L627.794 292.402L686.2 267.874" stroke="#E4E4E7" stroke-miterlimit="10"/>
<path d="M-73 95.886L-14.6 71.358L43.8 95.886L102.2 71.358L160.6 95.886L219 71.358L277.394 95.886L335.794 71.358L394.194 95.886L452.594 71.358L510.994 95.886L569.394 71.358L627.794 95.886L686.2 71.358" stroke="#E4E4E7" stroke-miterlimit="10"/>
<path d="M-73 488.918L-14.6 464.39L43.8 488.918L102.2 464.39L160.6 488.918L219 464.39L277.394 488.918L335.794 464.39L394.194 488.918L452.594 464.39L510.994 488.918L569.394 464.39L627.794 488.918L686.2 464.39" stroke="#E4E4E7" stroke-miterlimit="10"/>
<path d="M686.054 120.56L744.454 145.088L802.854 120.56L861.254 145.088L919.654 120.56L978.048 145.088L1036.45 120.56L1094.85 145.088L1153.25 120.56L1211.65 145.088L1270.05 120.56L1328.45 145.088L1386.85 120.56" stroke="#E4E4E7" stroke-miterlimit="10"/>
<path d="M686.054 513.592L744.454 538.12L802.854 513.592L861.254 538.12L919.654 513.592L978.048 538.12L1036.45 513.592L1094.85 538.12L1153.25 513.592L1211.65 538.12L1270.05 513.592L1328.45 538.12L1386.85 513.592" stroke="#E4E4E7" stroke-miterlimit="10"/>
<path d="M686.054 317.076L744.454 341.604L802.854 317.076L861.254 341.604L919.654 317.076L978.048 341.604L1036.45 317.076L1094.85 341.604L1153.25 317.076L1211.65 341.604L1270.05 317.076L1328.45 341.604L1386.85 317.076" stroke="#E4E4E7" stroke-miterlimit="10"/>
<path d="M686.054 218.818L744.454 243.346L802.854 218.818L861.254 243.346L919.654 218.818L978.048 243.346L1036.45 218.818L1094.85 243.346L1153.25 218.818L1211.65 243.346L1270.05 218.818L1328.45 243.346L1386.85 218.818" stroke="#E4E4E7" stroke-miterlimit="10"/>
<path d="M686.054 611.85L744.454 636.378L802.854 611.85L861.254 636.378L919.654 611.85L978.048 636.378L1036.45 611.85L1094.85 636.378L1153.25 611.85L1211.65 636.378L1270.05 611.85L1328.45 636.378L1386.85 611.85" stroke="#E4E4E7" stroke-miterlimit="10"/>
<path d="M686.054 22.302L744.454 46.83L802.854 22.302L861.254 46.83L919.654 22.302L978.048 46.83L1036.45 22.302L1094.85 46.83L1153.25 22.302L1211.65 46.83L1270.05 22.302L1328.45 46.83L1386.85 22.302" stroke="#E4E4E7" stroke-miterlimit="10"/>
<path d="M686.054 415.334L744.454 439.862L802.854 415.334L861.254 439.862L919.654 415.334L978.048 439.862L1036.45 415.334L1094.85 439.862L1153.25 415.334L1211.65 439.862L1270.05 415.334L1328.45 439.862L1386.85 415.334" stroke="#E4E4E7" stroke-miterlimit="10"/>
<path d="M686.2 169.616L744.6 194.144L803 169.616L861.4 194.144L919.8 169.616L978.194 194.144L1036.59 169.616L1094.99 194.144L1153.39 169.616L1211.79 194.144L1270.19 169.616L1328.59 194.144L1387 169.616" stroke="#E4E4E7" stroke-miterlimit="10"/>
<path d="M686.2 562.648L744.6 587.176L803 562.648L861.4 587.176L919.8 562.648L978.194 587.176L1036.59 562.648L1094.99 587.176L1153.39 562.648L1211.79 587.176L1270.19 562.648L1328.59 587.176L1387 562.648" stroke="#E4E4E7" stroke-miterlimit="10"/>
<path d="M686.2 366.132L744.6 390.66L803 366.132L861.4 390.66L919.8 366.132L978.194 390.66L1036.59 366.132L1094.99 390.66L1153.39 366.132L1211.79 390.66L1270.19 366.132L1328.59 390.66L1387 366.132" stroke="#E4E4E7" stroke-miterlimit="10"/>
<path d="M686.2 267.874L744.6 292.402L803 267.874L861.4 292.402L919.8 267.874L978.194 292.402L1036.59 267.874L1094.99 292.402L1153.39 267.874L1211.79 292.402L1270.19 267.874L1328.59 292.402L1387 267.874" stroke="#E4E4E7" stroke-miterlimit="10"/>
<path d="M686.2 71.358L744.6 95.886L803 71.358L861.4 95.886L919.8 71.358L978.194 95.886L1036.59 71.358L1094.99 95.886L1153.39 71.358L1211.79 95.886L1270.19 71.358L1328.59 95.886L1387 71.358" stroke="#E4E4E7" stroke-miterlimit="10"/>
<path d="M686.2 464.39L744.6 488.918L803 464.39L861.4 488.918L919.8 464.39L978.194 488.918L1036.59 464.39L1094.99 488.918L1153.39 464.39L1211.79 488.918L1270.19 464.39L1328.59 488.918L1387 464.39" stroke="#E4E4E7" stroke-miterlimit="10"/>
</g>
</svg>
