<svg width="354" height="99" viewBox="0 0 354 99" fill="none" xmlns="http://www.w3.org/2000/svg">
<mask id="mask0_895_1083" style="mask-type:alpha" maskUnits="userSpaceOnUse" x="0" y="0" width="354" height="99">
<rect width="354" height="99" fill="url(#paint0_linear_895_1083)"/>
</mask>
<g mask="url(#mask0_895_1083)">
<path d="M202.854 45.3536C203.049 45.1583 203.049 44.8417 202.854 44.6464L199.672 41.4645C199.476 41.2692 199.16 41.2692 198.964 41.4645C198.769 41.6597 198.769 41.9763 198.964 42.1716L201.793 45L198.964 47.8284C198.769 48.0237 198.769 48.3403 198.964 48.5355C199.16 48.7308 199.476 48.7308 199.672 48.5355L202.854 45.3536ZM-66 45.5H202.5V44.5H-66V45.5Z" fill="url(#paint1_linear_895_1083)"/>
<g opacity="0.5">
<path d="M209 21.5H486C489.59 21.5 492.5 24.4101 492.5 28V65C492.5 66.933 490.933 68.5 489 68.5H209C207.067 68.5 205.5 66.933 205.5 65V25C205.5 23.067 207.067 21.5 209 21.5Z" fill="#A1A1AA"/>
<path d="M209 21.5H486C489.59 21.5 492.5 24.4101 492.5 28V65C492.5 66.933 490.933 68.5 489 68.5H209C207.067 68.5 205.5 66.933 205.5 65V25C205.5 23.067 207.067 21.5 209 21.5Z" stroke="url(#paint2_linear_895_1083)"/>
</g>
<path d="M213 30H376C378.209 30 380 31.7909 380 34V56C380 58.2091 378.209 60 376 60H217C214.791 60 213 58.2091 213 56V30Z" fill="#A1A1AA"/>
<path d="M230.53 49.126C227.548 49.126 225.588 47.082 225.588 43.904C225.588 40.712 227.562 38.682 230.53 38.682C232.994 38.682 234.786 40.04 235.108 42.168H233.89C233.61 40.74 232.35 39.732 230.53 39.732C228.234 39.732 226.82 41.3 226.82 43.904C226.82 46.494 228.234 48.076 230.53 48.076C232.35 48.076 233.638 47.096 233.89 45.584L235.108 45.598C234.828 47.74 233.022 49.126 230.53 49.126ZM239.916 49.126C237.788 49.126 236.36 47.628 236.36 45.346C236.36 43.092 237.746 41.538 239.916 41.538C242.03 41.538 243.444 43.022 243.444 45.332C243.444 47.572 242.072 49.126 239.916 49.126ZM239.916 48.146C241.344 48.146 242.296 47.11 242.296 45.332C242.296 43.568 241.386 42.49 239.916 42.49C238.488 42.49 237.522 43.54 237.522 45.346C237.522 47.082 238.446 48.146 239.916 48.146ZM245.054 49V41.65H246.132L246.174 43.176H246.258C246.692 42.098 247.672 41.538 248.778 41.538C249.898 41.538 250.822 42.042 251.186 43.302H251.298C251.732 42.14 252.754 41.538 253.958 41.538C255.442 41.538 256.534 42.406 256.534 44.674V49H255.414V44.898C255.414 43.246 254.826 42.49 253.566 42.49C252.222 42.49 251.368 43.582 251.368 45.024V49H250.22V44.898C250.22 43.246 249.646 42.49 248.4 42.49C247.042 42.49 246.174 43.582 246.174 45.024V49H245.054ZM261.627 49.126C259.499 49.126 258.071 47.628 258.071 45.346C258.071 43.092 259.457 41.538 261.627 41.538C263.741 41.538 265.155 43.022 265.155 45.332C265.155 47.572 263.783 49.126 261.627 49.126ZM261.627 48.146C263.055 48.146 264.007 47.11 264.007 45.332C264.007 43.568 263.097 42.49 261.627 42.49C260.199 42.49 259.233 43.54 259.233 45.346C259.233 47.082 260.157 48.146 261.627 48.146ZM272.974 49.126C270.846 49.126 269.446 47.614 269.446 45.332C269.446 43.064 270.846 41.538 273.016 41.538C274.752 41.538 276.026 42.574 276.152 44.114H275.06C274.864 43.064 274.038 42.504 272.988 42.504C271.476 42.504 270.594 43.652 270.594 45.346C270.594 47.124 271.532 48.16 272.974 48.16C274.15 48.16 274.962 47.46 275.088 46.424H276.194C276.054 48.062 274.752 49.126 272.974 49.126ZM277.757 49V41.65H278.765L278.835 43.008H278.891C279.213 42.07 280.081 41.552 281.075 41.552C281.243 41.552 281.397 41.566 281.523 41.58V42.658C281.397 42.644 281.243 42.63 281.075 42.63C279.787 42.63 278.975 43.358 278.877 44.618V49H277.757ZM282.857 40.432V38.794H283.991V40.432H282.857ZM282.857 49V41.65H283.991V49H282.857ZM288.631 49.126C286.825 49.126 285.607 47.74 285.607 45.318C285.607 42.896 286.825 41.524 288.631 41.524C289.919 41.524 290.871 42.182 291.235 43.176H291.305L291.347 41.65H292.439V49H291.305V47.46H291.235C290.871 48.454 289.919 49.126 288.631 49.126ZM289.009 48.174C290.479 48.174 291.291 46.998 291.291 45.766V44.87C291.291 43.638 290.479 42.462 289.009 42.462C287.665 42.462 286.769 43.456 286.769 45.318C286.769 47.166 287.665 48.174 289.009 48.174ZM294.56 49V41.65H295.568L295.638 43.008H295.694C296.016 42.07 296.884 41.552 297.878 41.552C298.046 41.552 298.2 41.566 298.326 41.58V42.658C298.2 42.644 298.046 42.63 297.878 42.63C296.59 42.63 295.778 43.358 295.68 44.618V49H294.56ZM305.449 49.126C303.797 49.126 302.789 48.132 302.789 46.158V41.65H303.923V45.878C303.923 47.334 304.483 48.16 305.841 48.16C307.157 48.16 308.067 47.11 308.067 45.57V41.65H309.201V49H308.123L308.067 47.432H307.997C307.619 48.482 306.625 49.126 305.449 49.126ZM311.253 49V41.65H312.331L312.373 43.176H312.457C312.891 42.098 313.871 41.538 314.977 41.538C316.097 41.538 317.021 42.042 317.385 43.302H317.497C317.931 42.14 318.953 41.538 320.157 41.538C321.641 41.538 322.733 42.406 322.733 44.674V49H321.613V44.898C321.613 43.246 321.025 42.49 319.765 42.49C318.421 42.49 317.567 43.582 317.567 45.024V49H316.419V44.898C316.419 43.246 315.845 42.49 314.599 42.49C313.241 42.49 312.373 43.582 312.373 45.024V49H311.253ZM329.934 49C328.856 49 328.492 48.524 328.492 47.6V42.588H327.064V41.65H328.492V39.452L329.626 39.298V41.65H331.334V42.588H329.626V47.404C329.626 47.922 329.78 48.048 330.284 48.048H331.334V49H329.934ZM333.903 49L331.971 41.65H333.119L334.729 47.866H334.785L336.325 41.65H337.599L339.181 47.866H339.223L340.805 41.65H341.911L339.979 49H338.495L336.941 43.092H336.885L335.387 49H333.903ZM343.068 40.432V38.794H344.202V40.432H343.068ZM343.068 49V41.65H344.202V49H343.068ZM348.281 49C347.203 49 346.839 48.524 346.839 47.6V42.588H345.411V41.65H346.839V39.452L347.973 39.298V41.65H351.011V39.452L352.145 39.298V41.65H353.853V42.588H352.145V47.404C352.145 47.922 352.299 48.048 352.803 48.048H353.853V49H352.453C351.375 49 351.011 48.524 351.011 47.6V42.588H347.973V47.404C347.973 47.922 348.127 48.048 348.631 48.048H349.681V49H348.281ZM358.109 49.126C355.953 49.126 354.609 47.628 354.609 45.346C354.609 43.05 355.925 41.538 358.053 41.538C360.419 41.538 361.567 43.274 361.343 45.528H355.729C355.771 47.222 356.695 48.188 358.109 48.188C359.215 48.188 360.027 47.642 360.223 46.774H361.315C361.105 48.188 359.789 49.126 358.109 49.126ZM358.039 42.462C356.765 42.462 355.897 43.288 355.757 44.646H360.237C360.195 43.092 359.257 42.462 358.039 42.462ZM362.988 49V41.65H363.996L364.066 43.008H364.122C364.444 42.07 365.312 41.552 366.306 41.552C366.474 41.552 366.628 41.566 366.754 41.58V42.658C366.628 42.644 366.474 42.63 366.306 42.63C365.018 42.63 364.206 43.358 364.108 44.618V49H362.988Z" fill="white"/>
<path d="M213 12C213 10.8954 213.895 10 215 10H277C278.105 10 279 10.8954 279 12V30H213V12Z" fill="#A1A1AA"/>
<path d="M223.716 24.096C221.196 24.096 219.528 22.32 219.528 19.632C219.528 16.932 221.208 15.168 223.716 15.168C225.792 15.168 227.292 16.308 227.592 18.108H226.836C226.572 16.764 225.42 15.828 223.716 15.828C221.604 15.828 220.308 17.304 220.308 19.632C220.308 21.96 221.604 23.436 223.716 23.436C225.42 23.436 226.596 22.512 226.836 21.108L227.592 21.12C227.352 22.932 225.816 24.096 223.716 24.096ZM232.653 24.096C230.517 24.096 229.221 22.884 229.221 20.844V15.252H229.965V20.796C229.965 22.56 230.997 23.412 232.653 23.412C234.489 23.412 235.353 22.392 235.353 20.796V15.252H236.085V20.844C236.085 22.812 234.849 24.096 232.653 24.096ZM238.364 24V15.252H242.204C243.98 15.252 244.94 16.092 244.94 17.568C244.94 18.636 244.412 19.416 243.38 19.704V19.788C244.376 19.944 244.748 20.532 244.748 21.54V23.1C244.748 23.388 244.748 23.688 244.892 24H244.136C244.016 23.748 244.004 23.448 244.004 23.064V21.672C244.004 20.652 243.644 20.136 242.228 20.136H239.108V24H238.364ZM239.108 19.5H242.108C243.596 19.5 244.184 18.732 244.184 17.652C244.184 16.44 243.355 15.912 242.108 15.912H239.108V19.5ZM249.596 24.096C247.328 24.096 246.296 22.932 246.272 21.288H247.04C247.088 22.644 247.856 23.484 249.584 23.484C251.072 23.484 252.068 22.932 252.068 21.768C252.068 20.532 251.348 20.148 249.5 19.812C247.508 19.452 246.476 18.972 246.476 17.484C246.476 16.08 247.604 15.156 249.5 15.156C251.456 15.156 252.512 16.164 252.548 17.676H251.78C251.744 16.428 250.88 15.768 249.452 15.768C248.048 15.768 247.256 16.404 247.256 17.388C247.256 18.528 247.988 18.792 249.836 19.14C251.456 19.416 252.836 19.8 252.836 21.72C252.836 23.148 251.684 24.096 249.596 24.096ZM258.358 24.096C255.79 24.096 254.122 22.332 254.122 19.632C254.122 16.908 255.802 15.168 258.358 15.168C260.926 15.168 262.594 16.92 262.594 19.632C262.594 22.356 260.902 24.096 258.358 24.096ZM258.358 23.436C260.506 23.436 261.826 21.936 261.826 19.632C261.826 17.304 260.494 15.828 258.358 15.828C256.21 15.828 254.902 17.316 254.902 19.632C254.902 21.948 256.222 23.436 258.358 23.436ZM266.498 24V23.82C266.498 20.652 271.13 20.196 271.13 17.7C271.13 16.596 270.362 15.864 269.198 15.864C267.974 15.864 267.134 16.656 267.194 17.892H266.51C266.462 16.308 267.59 15.24 269.246 15.24C270.83 15.24 271.862 16.248 271.862 17.664C271.862 20.4 267.542 21.072 267.326 23.364H271.982V24H266.498Z" fill="white" fill-opacity="0.4"/>
<g opacity="0.5">
<path d="M-115.5 51.5H168C169.933 51.5 171.5 53.067 171.5 55V95C171.5 96.933 169.933 98.5 168 98.5H-112C-113.933 98.5 -115.5 96.933 -115.5 95V51.5Z" fill="#A1A1AA"/>
<path d="M-115.5 51.5H168C169.933 51.5 171.5 53.067 171.5 55V95C171.5 96.933 169.933 98.5 168 98.5H-112C-113.933 98.5 -115.5 96.933 -115.5 95V51.5Z" stroke="url(#paint3_linear_895_1083)"/>
</g>
<path d="M-15 60H152C154.209 60 156 61.7909 156 64V86C156 88.2091 154.209 90 152 90H-11C-13.2091 90 -15 88.2091 -15 86V60Z" fill="#A1A1AA"/>
<path d="M-2.944 79L0.794 68.794H2.46L6.198 79H4.952L4.028 76.48H-0.774L-1.684 79H-2.944ZM-0.466 75.528H3.72L2.46 72.112L1.676 69.914H1.606L0.808 72.112L-0.466 75.528ZM7.30619 81.338L7.32019 71.65H8.39819L8.44019 73.176H8.52419C8.88819 72.196 9.84019 71.524 11.1142 71.524C12.9202 71.524 14.1382 72.91 14.1382 75.332C14.1382 77.754 12.9202 79.126 11.1142 79.126C9.84019 79.126 8.88819 78.468 8.52419 77.474H8.44019V81.338H7.30619ZM10.7362 78.174C12.0802 78.174 12.9902 77.18 12.9902 75.332C12.9902 73.47 12.0802 72.476 10.7362 72.476C9.26619 72.476 8.45419 73.638 8.45419 74.884V75.766C8.45419 77.012 9.26619 78.174 10.7362 78.174ZM15.7554 79V71.65H16.7634L16.8334 73.008H16.8894C17.2114 72.07 18.0794 71.552 19.0734 71.552C19.2414 71.552 19.3954 71.566 19.5214 71.58V72.658C19.3954 72.644 19.2414 72.63 19.0734 72.63C17.7854 72.63 16.9734 73.358 16.8754 74.618V79H15.7554ZM23.5773 79.126C21.4213 79.126 20.0773 77.628 20.0773 75.346C20.0773 73.05 21.3933 71.538 23.5213 71.538C25.8873 71.538 27.0353 73.274 26.8113 75.528H21.1973C21.2393 77.222 22.1633 78.188 23.5773 78.188C24.6833 78.188 25.4953 77.642 25.6913 76.774H26.7833C26.5733 78.188 25.2573 79.126 23.5773 79.126ZM23.5073 72.462C22.2333 72.462 21.3653 73.288 21.2253 74.646H25.7053C25.6633 73.092 24.7253 72.462 23.5073 72.462ZM28.4566 79V71.65H29.5346L29.5766 73.176H29.6606C30.1086 72.098 31.1166 71.538 32.2226 71.538C33.7486 71.538 34.8686 72.406 34.8686 74.674V79H33.7346V74.898C33.7346 73.246 33.1326 72.49 31.8586 72.49C30.4726 72.49 29.5766 73.582 29.5766 75.024V79H28.4566ZM39.4391 79.126C37.6331 79.126 36.4151 77.74 36.4151 75.318C36.4151 72.896 37.6331 71.524 39.4391 71.524C40.7271 71.524 41.6791 72.182 42.0431 73.176H42.1131V68.794H43.2471L43.2331 79H42.1551L42.1131 77.46H42.0431C41.6791 78.454 40.7271 79.126 39.4391 79.126ZM39.8171 78.174C41.2871 78.174 42.0991 76.998 42.0991 75.766V74.87C42.0991 73.638 41.2871 72.462 39.8171 72.462C38.4731 72.462 37.5771 73.456 37.5771 75.318C37.5771 77.166 38.4731 78.174 39.8171 78.174ZM47.8747 79.126C46.0687 79.126 44.8507 77.74 44.8507 75.318C44.8507 72.896 46.0687 71.524 47.8747 71.524C49.1627 71.524 50.1147 72.182 50.4787 73.176H50.5487L50.5907 71.65H51.6827V79H50.5487V77.46H50.4787C50.1147 78.454 49.1627 79.126 47.8747 79.126ZM48.2527 78.174C49.7227 78.174 50.5347 76.998 50.5347 75.766V74.87C50.5347 73.638 49.7227 72.462 48.2527 72.462C46.9087 72.462 46.0127 73.456 46.0127 75.318C46.0127 77.166 46.9087 78.174 48.2527 78.174ZM57.2415 79V68.794H58.4315V73.302H64.6055V68.794H65.7955V79H64.6055V74.352H58.4315V79H57.2415ZM70.5394 79V69.844H67.2354V68.794H75.0614V69.844H71.7434V79H70.5394ZM76.5051 79V68.794H78.3531L81.5591 77.166H81.6151L84.8351 68.794H86.6691V79H85.4931V73.862L85.5351 70.068H85.4371L82.0911 79H81.1111L77.7511 70.068H77.6531L77.6811 73.862V79H76.5051ZM89.2883 79V68.794H90.4783V77.908H95.5183V79H89.2883ZM100.144 79V68.794H104.722C106.682 68.794 107.76 69.844 107.76 71.412C107.76 72.49 107.214 73.414 106.08 73.694V73.75C107.368 74.002 108.026 74.982 108.026 76.158C108.026 77.95 106.724 79 104.596 79H100.144ZM101.32 73.302H104.638C105.912 73.302 106.57 72.602 106.57 71.566C106.57 70.418 105.744 69.76 104.47 69.76H101.32V73.302ZM101.32 78.034H104.498C106.052 78.034 106.808 77.236 106.808 76.088C106.808 74.912 106.024 74.24 104.694 74.24H101.32V78.034ZM112.383 70.684L113.251 68.724H114.413L113.237 70.684H112.383ZM112.215 79.126C110.409 79.126 109.191 77.74 109.191 75.318C109.191 72.896 110.409 71.524 112.215 71.524C113.503 71.524 114.455 72.182 114.819 73.176H114.889L114.931 71.65H116.023V79H114.889V77.46H114.819C114.455 78.454 113.503 79.126 112.215 79.126ZM112.593 78.174C114.063 78.174 114.875 76.998 114.875 75.766V74.87C114.875 73.638 114.063 72.462 112.593 72.462C111.249 72.462 110.353 73.456 110.353 75.318C110.353 77.166 111.249 78.174 112.593 78.174ZM120.79 79.14C118.83 79.14 117.738 78.16 117.738 76.704H118.872C118.872 77.81 119.67 78.3 120.818 78.3C121.994 78.3 122.624 77.852 122.624 77.068C122.624 76.172 122.064 75.934 120.72 75.738C119.026 75.486 117.948 75.094 117.948 73.652C117.948 72.322 119.082 71.51 120.79 71.51C122.568 71.51 123.618 72.378 123.632 73.806H122.526C122.498 72.784 121.826 72.35 120.776 72.35C119.684 72.35 119.082 72.826 119.082 73.54C119.082 74.352 119.698 74.618 121.028 74.8C122.568 75.01 123.786 75.36 123.786 76.97C123.786 78.412 122.624 79.14 120.79 79.14ZM125.541 70.432V68.794H126.675V70.432H125.541ZM125.541 79V71.65H126.675V79H125.541ZM131.818 79.126C129.69 79.126 128.29 77.614 128.29 75.332C128.29 73.064 129.69 71.538 131.86 71.538C133.596 71.538 134.87 72.574 134.996 74.114H133.904C133.708 73.064 132.882 72.504 131.832 72.504C130.32 72.504 129.438 73.652 129.438 75.346C129.438 77.124 130.376 78.16 131.818 78.16C132.994 78.16 133.806 77.46 133.932 76.424H135.038C134.898 78.062 133.596 79.126 131.818 79.126ZM139.639 79.126C137.511 79.126 136.083 77.628 136.083 75.346C136.083 73.092 137.469 71.538 139.639 71.538C141.753 71.538 143.167 73.022 143.167 75.332C143.167 77.572 141.795 79.126 139.639 79.126ZM139.639 78.146C141.067 78.146 142.019 77.11 142.019 75.332C142.019 73.568 141.109 72.49 139.639 72.49C138.211 72.49 137.245 73.54 137.245 75.346C137.245 77.082 138.169 78.146 139.639 78.146Z" fill="white"/>
<path d="M-15 42C-15 40.8954 -14.1046 40 -13 40H47C48.1046 40 49 40.8954 49 42V60H-15V42Z" fill="#A1A1AA"/>
<path d="M-4.26 54.108C-6.816 54.108 -8.496 52.356 -8.496 49.632C-8.496 46.896 -6.804 45.156 -4.26 45.156C-2.148 45.156 -0.611999 46.32 -0.335999 48.144H-1.38C-1.62 46.92 -2.7 46.056 -4.26 46.056C-6.228 46.056 -7.44 47.4 -7.44 49.632C-7.44 51.852 -6.228 53.208 -4.26 53.208C-2.7 53.208 -1.596 52.368 -1.38 51.072L-0.335999 51.084C-0.576 52.92 -2.124 54.108 -4.26 54.108ZM4.71206 54.108C2.52806 54.108 1.20806 52.86 1.20806 50.796V45.252H2.22806V50.772C2.22806 52.38 3.18806 53.172 4.72406 53.172C6.40406 53.172 7.20806 52.236 7.20806 50.772V45.252H8.21606V50.796C8.21606 52.824 6.93206 54.108 4.71206 54.108ZM10.3855 54V45.252H14.3455C16.1935 45.252 17.1655 46.104 17.1655 47.616C17.1655 48.684 16.6255 49.464 15.6055 49.74V49.824C16.5895 49.992 16.9735 50.568 16.9735 51.564V53.076C16.9735 53.364 16.9735 53.676 17.1055 54H16.0735C15.9655 53.76 15.9415 53.448 15.9415 53.04V51.744C15.9415 50.784 15.6055 50.292 14.2735 50.292H11.4055V54H10.3855ZM11.4055 49.452H14.2135C15.5695 49.452 16.1095 48.744 16.1095 47.748C16.1095 46.608 15.3535 46.128 14.2135 46.128H11.4055V49.452ZM21.7842 54.108C19.4802 54.108 18.4122 52.932 18.3762 51.276H19.4442C19.4682 52.512 20.1882 53.28 21.7962 53.28C23.1522 53.28 24.0522 52.788 24.0522 51.744C24.0522 50.604 23.4042 50.256 21.6162 49.956C19.6242 49.596 18.5922 49.056 18.5922 47.568C18.5922 46.092 19.7562 45.156 21.7122 45.156C23.6922 45.156 24.8082 46.164 24.8322 47.688H23.7882C23.7402 46.548 22.9362 45.96 21.6642 45.96C20.3802 45.96 19.6482 46.548 19.6482 47.424C19.6482 48.48 20.3442 48.72 22.1082 49.032C23.7042 49.308 25.1202 49.692 25.1202 51.648C25.1202 53.112 23.9442 54.108 21.7842 54.108ZM30.569 54.108C27.989 54.108 26.297 52.368 26.297 49.632C26.297 46.884 28.001 45.156 30.569 45.156C33.149 45.156 34.853 46.884 34.853 49.632C34.853 52.38 33.137 54.108 30.569 54.108ZM30.569 53.208C32.549 53.208 33.797 51.84 33.797 49.632C33.797 47.412 32.549 46.056 30.569 46.056C28.589 46.056 27.353 47.412 27.353 49.632C27.353 51.852 28.601 53.208 30.569 53.208ZM40.5339 54V47.508H38.4939V46.764H38.8179C39.9819 46.764 40.4739 46.2 40.5579 45.348H41.5059V54H40.5339Z" fill="white" fill-opacity="0.4"/>
<path d="M178 75H437" stroke="url(#paint4_linear_895_1083)"/>
</g>
<defs>
<linearGradient id="paint0_linear_895_1083" x1="177" y1="0" x2="177" y2="99" gradientUnits="userSpaceOnUse">
<stop stop-color="#1E293B"/>
<stop offset="1" stop-color="#1E293B" stop-opacity="0"/>
</linearGradient>
<linearGradient id="paint1_linear_895_1083" x1="111.5" y1="44.9999" x2="68.25" y2="45.9999" gradientUnits="userSpaceOnUse">
<stop stop-color="#BDBDDA" stop-opacity="0.18"/>
<stop offset="1" stop-color="#404047" stop-opacity="0"/>
</linearGradient>
<linearGradient id="paint2_linear_895_1083" x1="239.56" y1="22.9459" x2="264.828" y2="122.294" gradientUnits="userSpaceOnUse">
<stop stop-color="#404047" stop-opacity="0.53"/>
<stop offset="0.470485" stop-color="white" stop-opacity="0.21"/>
<stop offset="1" stop-color="#27272A" stop-opacity="0"/>
</linearGradient>
<linearGradient id="paint3_linear_895_1083" x1="-81.44" y1="52.9459" x2="-56.1716" y2="152.294" gradientUnits="userSpaceOnUse">
<stop stop-color="#404047" stop-opacity="0.53"/>
<stop offset="0.470485" stop-color="white" stop-opacity="0.21"/>
<stop offset="1" stop-color="#27272A" stop-opacity="0"/>
</linearGradient>
<linearGradient id="paint4_linear_895_1083" x1="209.08" y1="75.0405" x2="209.093" y2="77.2441" gradientUnits="userSpaceOnUse">
<stop stop-color="#404047" stop-opacity="0.53"/>
<stop offset="0.470485" stop-color="white" stop-opacity="0.21"/>
<stop offset="1" stop-color="#27272A" stop-opacity="0"/>
</linearGradient>
</defs>
</svg>
