<svg width="306" height="140" viewBox="0 0 306 140" fill="none" xmlns="http://www.w3.org/2000/svg">
<g clip-path="url(#clip0_160_2118)">
<rect width="306" height="140" fill="white"/>
<mask id="mask0_160_2118" style="mask-type:alpha" maskUnits="userSpaceOnUse" x="-70" y="-32" width="446" height="204">
<rect x="-70" y="-32" width="446" height="204" fill="url(#paint0_radial_160_2118)"/>
</mask>
<g mask="url(#mask0_160_2118)">
<path d="M0 111.657H306" stroke="#E2E8F0" stroke-linecap="square"/>
<path d="M0 80.2189H306" stroke="#E2E8F0" stroke-linecap="square"/>
<path d="M0 48.781H306" stroke="#E2E8F0" stroke-linecap="square"/>
<path d="M0 17.3431H306" stroke="#E2E8F0" stroke-linecap="square"/>
<path d="M304.595 217.5V-88.5M273.157 217.5V-88.5M241.719 217.5V-88.5M210.281 217.5V-88.5M178.843 217.5V-88.5M147.405 217.5V-88.5M116.039 218V-86M84.6016 218V-86M53.1633 218V-86M21.7254 218V-86M-9.71289 218V-86M-41.1504 218V-86" stroke="#E2E8F0" stroke-linecap="square"/>
</g>
<mask id="mask1_160_2118" style="mask-type:alpha" maskUnits="userSpaceOnUse" x="0" y="0" width="306" height="140">
<rect width="306" height="140" fill="url(#paint1_radial_160_2118)"/>
</mask>
<g mask="url(#mask1_160_2118)">
<path opacity="0.4" fill-rule="evenodd" clip-rule="evenodd" d="M0.168945 139.788L41.8948 129.123L84.8129 80.6473L127.135 99.0682L170.053 49.6225L213.567 30.232L253.505 64.5253L286.885 8.90252L305.857 0.211853V139.788" fill="url(#paint2_linear_160_2118)"/>
<path d="M0 140L41.7488 129.303L84.6904 80.6796L127.036 99.1564L169.977 49.5606L213.515 30.1113L253.475 64.5087L286.874 8.71704L306 0" stroke="url(#paint3_linear_160_2118)" stroke-width="2" stroke-linecap="round" stroke-linejoin="round"/>
</g>
<g filter="url(#filter0_b_160_2118)">
<rect x="39" y="20" width="92" height="56" rx="4" fill="white" fill-opacity="0.1"/>
<rect x="62.5" y="32" width="45" height="6" rx="3" fill="#CBD5E1"/>
<rect x="59" y="46" width="52" height="4" rx="2" fill="#E2E8F0"/>
<rect x="66.5" y="53" width="37" height="4" rx="2" fill="#E2E8F0"/>
<rect x="47" y="60" width="76" height="4" rx="2" fill="#E2E8F0"/>
<rect x="39.5" y="20.5" width="91" height="55" rx="3.5" stroke="#CBD5E1"/>
</g>
</g>
<defs>
<filter id="filter0_b_160_2118" x="23" y="4" width="124" height="88" filterUnits="userSpaceOnUse" color-interpolation-filters="sRGB">
<feFlood flood-opacity="0" result="BackgroundImageFix"/>
<feGaussianBlur in="BackgroundImageFix" stdDeviation="8"/>
<feComposite in2="SourceAlpha" operator="in" result="effect1_backgroundBlur_160_2118"/>
<feBlend mode="normal" in="SourceGraphic" in2="effect1_backgroundBlur_160_2118" result="shape"/>
</filter>
<radialGradient id="paint0_radial_160_2118" cx="0" cy="0" r="1" gradientUnits="userSpaceOnUse" gradientTransform="translate(153 70) rotate(90) scale(102 223)">
<stop offset="0.28125"/>
<stop offset="1" stop-opacity="0"/>
</radialGradient>
<radialGradient id="paint1_radial_160_2118" cx="0" cy="0" r="1" gradientUnits="userSpaceOnUse" gradientTransform="translate(153 70) rotate(90) scale(70 153)">
<stop offset="0.28125"/>
<stop offset="1" stop-opacity="0"/>
</radialGradient>
<linearGradient id="paint2_linear_160_2118" x1="0.168945" y1="70" x2="305.857" y2="70" gradientUnits="userSpaceOnUse">
<stop stop-color="#D946EF"/>
<stop offset="1" stop-color="#2563EB"/>
</linearGradient>
<linearGradient id="paint3_linear_160_2118" x1="2.27988e-06" y1="70" x2="305.856" y2="70" gradientUnits="userSpaceOnUse">
<stop stop-color="#D946EF"/>
<stop offset="1" stop-color="#2563EB"/>
</linearGradient>
<clipPath id="clip0_160_2118">
<rect width="306" height="140" fill="white"/>
</clipPath>
</defs>
</svg>
