<svg width="114" height="107" viewBox="0 0 114 107" fill="none" xmlns="http://www.w3.org/2000/svg">
<path d="M52.6123 107L61.3868 91.7094H114L105.225 107H52.6123Z" fill="#18181B"/>
<path d="M43.8382 91.7093H8.74023L35.0637 45.8718H70.1616L61.3871 61.1281H43.8382L35.0637 76.4187L43.8382 91.7093Z" fill="#18181B"/>
<path d="M87.6769 45.8718H105.226L87.6769 76.4187H70.1621L87.6769 45.8718Z" fill="#18181B"/>
<path d="M105.226 45.8719L78.9025 0H61.3877L87.677 45.8719H105.226Z" fill="#D4D4D8"/>
<path d="M70.1615 45.8719L61.387 30.5813H26.2891L35.0635 45.8719H70.1615Z" fill="#D4D4D8"/>
<path d="M61.3869 61.1282L70.1613 76.4188H87.6762L96.4506 61.1282L114 91.7094H61.3869L43.8379 61.1282H61.3869Z" fill="#D4D4D8"/>
<path d="M61.3869 0L43.8379 30.5812H61.3869L70.1613 45.8719L61.3869 61.1281L70.1613 76.4187L87.6762 45.8719L61.3869 0Z" fill="#52525B"/>
<path d="M26.2893 30.5813L35.0638 45.8719L8.74034 91.7094L0 76.4188L26.2893 30.5813Z" fill="#52525B"/>
<path d="M43.838 61.1282L35.0635 76.4188L52.6124 107L61.3869 91.7094L43.838 61.1282Z" fill="#52525B"/>
</svg>
